<svg width="90" height="90" viewBox="0 0 90 90" fill="none" xmlns="http://www.w3.org/2000/svg">
<g clip-path="url(#clip0_9_487)">
<path d="M45 90C69.8528 90 90 69.8528 90 45C90 20.1472 69.8528 0 45 0C20.1472 0 0 20.1472 0 45C0 69.8528 20.1472 90 45 90Z" fill="#F0EFEB"/>
<path d="M64.0196 69.1107H83.0003C75.0179 81.6683 60.9816 89.9998 45.0002 89.9998C29.0189 89.9998 14.9828 81.6685 7.00037 69.1107H25.9793V45.2334L45.0004 64.2435L64.0196 45.2334V69.1107Z" fill="#4C4C4C"/>
<path d="M90 45.0002C90 50.0273 89.1752 54.8615 87.6545 59.3763H74.0408V21.5397L45.0003 50.2843L15.9598 21.5397V59.3763H2.34594C0.825078 54.8617 0.000488281 50.0273 0.000488281 45.0002C0.000488281 20.1475 20.1475 0.000518799 45.0001 0.000518799C69.8528 0.000518799 90 20.1473 90 45.0002Z" fill="#FF6600"/>
</g>
<defs>
<clipPath id="clip0_9_487">
<rect width="90" height="90" fill="white"/>
</clipPath>
</defs>
</svg>
