<svg width="90" height="90" viewBox="0 0 90 90" fill="none" xmlns="http://www.w3.org/2000/svg">
<g clip-path="url(#clip0_9_544)">
<path d="M68.465 60.1188L46.2669 89.3715C45.6312 90.2098 44.3683 90.209 43.733 89.3715L21.5349 60.1188C21.0178 59.4386 21.7895 58.5336 22.5413 58.9354L44.2521 70.5028C44.4796 70.6241 44.7332 70.6881 44.991 70.6895C45.2488 70.6909 45.5031 70.6296 45.7319 70.5108L67.4586 58.9354C68.2104 58.5336 68.9821 59.4386 68.465 60.1188Z" fill="#6E6F80"/>
<path d="M68.465 60.1188L46.2574 89.384C45.8507 89.9097 45 89.5916 45 88.927V71.3276C45.0001 71.1986 45.0352 71.0721 45.1015 70.9615C45.1679 70.8509 45.2631 70.7604 45.3769 70.6997L67.4586 58.9354C68.2104 58.5336 68.9821 59.4386 68.465 60.1188Z" fill="#585966"/>
<path d="M69.6783 38.2946L45.7399 50.8744C45.5118 50.9946 45.2578 51.0574 45 51.0574C44.7422 51.0574 44.4882 50.9946 44.2601 50.8744L20.3218 38.2946C19.4825 37.8531 19.214 36.7791 19.745 35.9935L43.6834 0.698481C44.3109 -0.230731 45.6844 -0.233118 46.3147 0.696493L70.255 35.9935C70.7861 36.7791 70.5176 37.8531 69.6783 38.2946Z" fill="#6E6F80"/>
<path d="M69.6782 38.2947L45.7329 50.878C45.3998 51.0538 45 50.7935 45 50.417V0.638459C45 0.266933 45.3908 0.00400028 45.722 0.171863C45.9609 0.293409 46.1649 0.474014 46.3145 0.696534L70.2548 35.9935C70.7861 36.7791 70.5176 37.8531 69.6782 38.2947Z" fill="#585966"/>
<path d="M44.2597 62.6172L18.0063 48.8203C17.6327 48.6239 17.3525 48.2872 17.2272 47.8843C17.1019 47.4813 17.1418 47.0451 17.3381 46.6716C17.5344 46.298 17.8711 46.0178 18.2741 45.8925C18.677 45.7671 19.1133 45.807 19.4868 46.0034L45 59.4113L70.5132 46.0032C71.2908 45.5941 72.253 45.8936 72.662 46.6715C72.8583 47.045 72.8981 47.4812 72.7728 47.8842C72.6475 48.2871 72.3672 48.6237 71.9937 48.8201L45.7402 62.617C45.5119 62.7371 45.2579 62.7998 45 62.7998C44.7421 62.7998 44.488 62.7372 44.2597 62.6172Z" fill="#6E6F80"/>
<path d="M45.6683 0.147569C45.3501 0.0322129 45 0.286394 45 0.638429V27.1401C45 28.1039 44.5601 29.0116 43.8128 29.6204C38.8856 33.6358 32.8246 34.8918 26.5868 34.1496C24.227 33.8687 23.0151 31.1722 24.3489 29.2054L43.6832 0.698494C44.1414 0.0198818 45.0048 -0.165484 45.6683 0.147569ZM42.0234 70.8401C40.9685 73.8048 38.5574 76.1081 35.3718 76.842C34.7713 76.9803 34.1466 76.738 33.7741 76.2474L21.5348 60.1188C21.0177 59.4386 21.7894 58.5336 22.5412 58.9354L41.2671 68.9137C41.9588 69.2822 42.2862 70.1019 42.0234 70.8401Z" fill="#828396"/>
</g>
<defs>
<clipPath id="clip0_9_544">
<rect width="90" height="90" fill="white"/>
</clipPath>
</defs>
</svg>
