<svg width="90" height="90" viewBox="0 0 90 90" fill="none" xmlns="http://www.w3.org/2000/svg">
<g clip-path="url(#clip0_9_494)">
<path d="M45 90C69.8528 90 90 69.8528 90 45C90 20.1472 69.8528 0 45 0C20.1472 0 0 20.1472 0 45C0 69.8528 20.1472 90 45 90Z" fill="url(#paint0_linear_9_494)"/>
<path d="M45 10.7227C26.1209 10.7227 10.7227 26.1209 10.7227 45C10.7227 63.8787 26.1209 79.2773 45 79.2773C63.8791 79.2773 79.2773 63.8787 79.2773 45C79.2773 26.1209 63.8791 10.7227 45 10.7227ZM60.8203 52.9102C60.8203 57.8145 57.4453 61.9276 52.9102 63.0879V66.0938C52.9102 67.5701 51.7502 68.7305 50.2734 68.7305C48.7967 68.7305 47.6367 67.5701 47.6367 66.0938V63.457H42.3633V66.0938C42.3633 67.5701 41.2033 68.7305 39.7266 68.7305C38.2498 68.7305 37.0898 67.5701 37.0898 66.0938V63.457H31.8164C30.3397 63.457 29.1797 62.2967 29.1797 60.8203C29.1797 59.3436 30.3397 58.1836 31.8164 58.1836H34.4531V31.8164H31.8164C30.3397 31.8164 29.1797 30.6561 29.1797 29.1797C29.1797 27.7029 30.3397 26.543 31.8164 26.543H37.0898V23.9062C37.0898 22.4295 38.2498 21.2695 39.7266 21.2695C41.2033 21.2695 42.3633 22.4295 42.3633 23.9062V26.543H47.6367V23.9062C47.6367 22.4295 48.7967 21.2695 50.2734 21.2695C51.7502 21.2695 52.9102 22.4295 52.9102 23.9062V26.9121C57.4453 28.0721 60.8203 32.1855 60.8203 37.0898C60.8203 40.2537 59.3963 43.0488 57.1816 45C59.3963 46.9512 60.8203 49.7459 60.8203 52.9102ZM50.2734 47.6367H39.7266V58.1836H50.2734C53.1738 58.1836 55.5469 55.8105 55.5469 52.9102C55.5469 50.0098 53.1738 47.6367 50.2734 47.6367ZM50.2734 31.8164H39.7266V42.3633H50.2734C53.1738 42.3633 55.5469 39.9902 55.5469 37.0898C55.5469 34.1895 53.1738 31.8164 50.2734 31.8164Z" fill="url(#paint1_linear_9_494)"/>
</g>
<defs>
<linearGradient id="paint0_linear_9_494" x1="45" y1="90" x2="45" y2="0" gradientUnits="userSpaceOnUse">
<stop stop-color="#FD5900"/>
<stop offset="1" stop-color="#FFDE00"/>
</linearGradient>
<linearGradient id="paint1_linear_9_494" x1="45" y1="79.2773" x2="45" y2="10.7227" gradientUnits="userSpaceOnUse">
<stop stop-color="#FFE59A"/>
<stop offset="1" stop-color="#FFFFD5"/>
</linearGradient>
<clipPath id="clip0_9_494">
<rect width="90" height="90" fill="white"/>
</clipPath>
</defs>
</svg>
