<svg width="90" height="90" viewBox="0 0 90 90" fill="none" xmlns="http://www.w3.org/2000/svg">
<path d="M45 85.7812C67.5229 85.7812 85.7812 67.5229 85.7812 45C85.7812 22.4771 67.5229 4.21875 45 4.21875C22.4771 4.21875 4.21875 22.4771 4.21875 45C4.21875 67.5229 22.4771 85.7812 45 85.7812Z" fill="#FFE477"/>
<path d="M45 80.1562C64.4163 80.1562 80.1562 64.4163 80.1562 45C80.1562 25.5837 64.4163 9.84375 45 9.84375C25.5837 9.84375 9.84375 25.5837 9.84375 45C9.84375 64.4163 25.5837 80.1562 45 80.1562Z" fill="#FFDA44"/>
<path d="M45.204 4.21875C45.6594 6.07665 45.9836 7.96428 46.1743 9.86766C52.6669 10.084 58.9726 12.0951 64.3916 15.6777C69.8106 19.2603 74.131 24.2744 76.8734 30.1634C79.6157 36.0524 80.6727 42.5861 79.9272 49.0393C79.1816 55.4926 76.6625 61.6132 72.6496 66.7217C68.6366 71.8302 63.2867 75.727 57.1935 77.9795C51.1004 80.232 44.5022 80.7523 38.1313 79.4825C31.7604 78.2127 25.8659 75.2025 21.1019 70.786C16.338 66.3695 12.8909 60.7194 11.1432 54.4627C9.31439 54.7129 7.47088 54.8403 5.62505 54.8438H5.42114C7.26394 62.252 11.1491 68.9943 16.6347 74.3035C22.1203 79.6126 28.9859 83.2755 36.4504 84.8752C43.915 86.475 51.6787 85.9474 58.8582 83.3526C66.0377 80.7577 72.3447 76.1998 77.0616 70.1974C81.7785 64.1949 84.7159 56.989 85.5396 49.3996C86.3633 41.8101 85.0401 34.1418 81.7207 27.2672C78.4014 20.3926 73.219 14.5877 66.7633 10.5131C60.3077 6.43843 52.8379 4.2576 45.204 4.21875Z" fill="#FFDE55"/>
<path d="M44.9999 80.1563C54.1795 80.0922 62.97 76.4401 69.4926 69.9807C76.0152 63.5212 79.7525 54.7667 79.9059 45.5881C80.0592 36.4096 76.6164 27.5351 70.3132 20.8614C64.01 14.1876 55.3465 10.244 46.1742 9.87329C46.3233 11.2648 46.4007 12.663 46.4062 14.0625C46.4047 23.9214 42.8318 33.4461 36.3487 40.8736C29.8656 48.3011 20.9113 53.1287 11.1431 54.4627C13.2087 61.8537 17.636 68.3658 23.7492 73.0051C29.8624 77.6443 37.3257 80.1558 44.9999 80.1563Z" fill="#FFCD00"/>
<path d="M45 29.0897L55.9378 40.0275L61.9045 34.0622L45 17.1577L28.0955 34.0622L34.0622 40.0275L45 29.0897ZM45 60.9103L34.0622 49.9725L28.0955 55.9378L45 72.8423L61.9045 55.9378L55.9378 49.9725L45 60.9103Z" fill="#F1F2F2"/>
<path d="M39.0248 45L44.9901 39.0347L50.9554 45L44.9901 50.9653L39.0248 45ZM60.899 45.0028L66.8643 39.0375L72.8296 45.0028L66.8643 50.9681L60.899 45.0028ZM17.152 44.9972L23.1173 39.0319L29.0826 44.9972L23.1173 50.9625L17.152 44.9972Z" fill="#F1F2F2"/>
</svg>
