<svg width="90" height="90" viewBox="0 0 90 90" fill="none" xmlns="http://www.w3.org/2000/svg">
<g clip-path="url(#clip0_9_562)">
<path d="M76.8199 13.1801C68.3205 4.68106 57.0197 0 45 0C32.9803 0 21.6795 4.68088 13.1801 13.1801C4.68106 21.6795 0 32.9803 0 45C0 57.0197 4.68088 68.3205 13.1801 76.8199C21.6795 85.3189 32.9803 90 45 90C57.0197 90 68.3205 85.3191 76.8199 76.8199C85.3189 68.3205 90 57.0197 90 45C90 32.9803 85.3191 21.6795 76.8199 13.1801ZM45 80.5078C25.421 80.5078 9.49219 64.579 9.49219 45C9.49219 25.421 25.421 9.49219 45 9.49219C64.579 9.49219 80.5078 25.421 80.5078 45C80.5078 64.579 64.579 80.5078 45 80.5078Z" fill="black"/>
<path d="M45 14.7656C28.3289 14.7656 14.7656 28.3289 14.7656 45C14.7656 61.6711 28.3289 75.2344 45 75.2344C61.6711 75.2344 75.2344 61.6711 75.2344 45C75.2344 28.3289 61.6711 14.7656 45 14.7656ZM56.3433 55.7879C55.7028 56.993 54.8397 57.9686 53.7534 58.7123C52.6663 59.4566 51.4167 60.0005 50.0029 60.3418C49.2291 60.5292 48.4346 60.663 47.6202 60.7482V66.8936H42.3468V60.6322C41.0458 60.4538 39.7615 60.17 38.5065 59.7836C36.1842 59.0694 34.1002 58.0579 32.2552 56.7478L34.9791 51.4345C35.247 51.7024 35.7304 52.0525 36.43 52.4839C37.129 52.9156 37.955 53.3475 38.9081 53.7787C39.8605 54.2106 40.9173 54.5753 42.0783 54.8726C43.2387 55.1705 44.4287 55.3191 45.6495 55.3191C49.043 55.3191 50.7396 54.2327 50.7396 52.0594C50.7396 51.3749 50.5454 50.7946 50.1595 50.3181C49.7721 49.8422 49.2216 49.4255 48.5074 49.0683C47.7933 48.7106 46.9296 48.3838 45.9181 48.0857C44.7881 47.7543 43.657 47.4271 42.5246 47.1039C41.0064 46.6871 39.6895 46.2333 38.5731 45.7416C37.4572 45.2507 36.5261 44.6704 35.7826 44.0003C35.0381 43.3306 34.48 42.557 34.1084 41.6786C33.7363 40.8011 33.5501 39.7521 33.5501 38.5311C33.5501 36.9237 33.8476 35.4948 34.4435 34.245C35.0381 32.9947 35.8641 31.953 36.9209 31.1196C37.9777 30.2864 39.2054 29.6536 40.6048 29.2215C41.1762 29.0471 41.758 28.9088 42.3468 28.8076V23.0607H47.6202V28.7318C48.9057 28.8979 50.1244 29.1946 51.2752 29.623C53.1505 30.3235 54.7873 31.1488 56.1869 32.1012L53.4635 37.1021C53.2549 36.894 52.8752 36.611 52.3245 36.2533C51.7737 35.8963 51.1037 35.5467 50.3153 35.2041C49.5264 34.8622 48.6708 34.5725 47.7487 34.3334C46.8298 34.0962 45.8845 33.9763 44.9355 33.9766C43.2387 33.9766 41.9732 34.2888 41.1404 34.9144C40.3068 35.5393 39.89 36.4173 39.89 37.5483C39.89 38.2034 40.0465 38.7471 40.359 39.1785C40.6714 39.6104 41.1245 39.9894 41.7206 40.3168C42.3158 40.6445 43.0671 40.9417 43.9755 41.2095C44.8833 41.4773 45.9325 41.7609 47.1231 42.0583C48.6708 42.4749 50.0771 42.9214 51.3425 43.3972C52.6073 43.8736 53.6787 44.469 54.5567 45.1832C55.4342 45.8979 56.112 46.7536 56.5886 47.7505C57.0644 48.7482 57.3026 49.9758 57.3026 51.4338C57.3033 53.1311 56.9827 54.582 56.3433 55.7879Z" fill="black"/>
</g>
<defs>
<clipPath id="clip0_9_562">
<rect width="90" height="90" fill="white"/>
</clipPath>
</defs>
</svg>
