<svg width="90" height="90" viewBox="0 0 90 90" fill="none" xmlns="http://www.w3.org/2000/svg">
<path d="M32.2735 50.3859C35.3102 50.3859 37.7719 47.9242 37.7719 44.8875C37.7719 41.8508 35.3102 39.389 32.2735 39.389C29.2368 39.389 26.775 41.8508 26.775 44.8875C26.775 47.9242 29.2368 50.3859 32.2735 50.3859Z" fill="#0033AD"/>
<path d="M57.7266 50.3859C60.7633 50.3859 63.225 47.9242 63.225 44.8875C63.225 41.8508 60.7633 39.389 57.7266 39.389C54.6899 39.389 52.2281 41.8508 52.2281 44.8875C52.2281 47.9242 54.6899 50.3859 57.7266 50.3859Z" fill="#0033AD"/>
<path d="M38.6367 61.4039C41.6734 61.4039 44.1352 58.9421 44.1352 55.9054C44.1352 52.8687 41.6734 50.407 38.6367 50.407C35.6 50.407 33.1383 52.8687 33.1383 55.9054C33.1383 58.9421 35.6 61.4039 38.6367 61.4039Z" fill="#0033AD"/>
<path d="M51.3633 39.368C54.4 39.368 56.8617 36.9062 56.8617 33.8695C56.8617 30.8328 54.4 28.3711 51.3633 28.3711C48.3266 28.3711 45.8649 30.8328 45.8649 33.8695C45.8649 36.9062 48.3266 39.368 51.3633 39.368Z" fill="#0033AD"/>
<path d="M51.3633 61.4039C54.4 61.4039 56.8617 58.9421 56.8617 55.9054C56.8617 52.8687 54.4 50.407 51.3633 50.407C48.3266 50.407 45.8649 52.8687 45.8649 55.9054C45.8649 58.9421 48.3266 61.4039 51.3633 61.4039Z" fill="#0033AD"/>
<path d="M38.6367 39.368C41.6734 39.368 44.1352 36.9062 44.1352 33.8695C44.1352 30.8328 41.6734 28.3711 38.6367 28.3711C35.6 28.3711 33.1383 30.8328 33.1383 33.8695C33.1383 36.9062 35.6 39.368 38.6367 39.368Z" fill="#0033AD"/>
<path d="M73.111 47.8828C74.7031 47.8828 75.9938 46.5921 75.9938 45C75.9938 43.4079 74.7031 42.1172 73.111 42.1172C71.5188 42.1172 70.2281 43.4079 70.2281 45C70.2281 46.5921 71.5188 47.8828 73.111 47.8828Z" fill="#0033AD"/>
<path d="M16.889 47.8828C18.4812 47.8828 19.7719 46.5921 19.7719 45C19.7719 43.4079 18.4812 42.1172 16.889 42.1172C15.2969 42.1172 14.0062 43.4079 14.0062 45C14.0062 46.5921 15.2969 47.8828 16.889 47.8828Z" fill="#0033AD"/>
<path d="M6.66565 46.8281C7.67529 46.8281 8.49377 46.0096 8.49377 45C8.49377 43.9904 7.67529 43.1719 6.66565 43.1719C5.656 43.1719 4.83752 43.9904 4.83752 45C4.83752 46.0096 5.656 46.8281 6.66565 46.8281Z" fill="#0033AD"/>
<path d="M83.3343 46.8281C84.344 46.8281 85.1625 46.0096 85.1625 45C85.1625 43.9904 84.344 43.1719 83.3343 43.1719C82.3247 43.1719 81.5062 43.9904 81.5062 45C81.5062 46.0096 82.3247 46.8281 83.3343 46.8281Z" fill="#0033AD"/>
<path d="M59.0555 23.5336C60.6477 23.5336 61.9384 22.2429 61.9384 20.6508C61.9384 19.0586 60.6477 17.7679 59.0555 17.7679C57.4634 17.7679 56.1727 19.0586 56.1727 20.6508C56.1727 22.2429 57.4634 23.5336 59.0555 23.5336Z" fill="#0033AD"/>
<path d="M30.9446 72.232C32.5367 72.232 33.8274 70.9413 33.8274 69.3492C33.8274 67.757 32.5367 66.4664 30.9446 66.4664C29.3524 66.4664 28.0618 67.757 28.0618 69.3492C28.0618 70.9413 29.3524 72.232 30.9446 72.232Z" fill="#0033AD"/>
<path d="M25.8329 80.0226C26.8425 80.0226 27.661 79.2042 27.661 78.1945C27.661 77.1849 26.8425 76.3664 25.8329 76.3664C24.8232 76.3664 24.0048 77.1849 24.0048 78.1945C24.0048 79.2042 24.8232 80.0226 25.8329 80.0226Z" fill="#0033AD"/>
<path d="M64.1672 13.6335C65.1769 13.6335 65.9954 12.8151 65.9954 11.8054C65.9954 10.7958 65.1769 9.97729 64.1672 9.97729C63.1576 9.97729 62.3391 10.7958 62.3391 11.8054C62.3391 12.8151 63.1576 13.6335 64.1672 13.6335Z" fill="#0033AD"/>
<path d="M30.9446 23.5336C32.5367 23.5336 33.8274 22.2429 33.8274 20.6508C33.8274 19.0586 32.5367 17.7679 30.9446 17.7679C29.3524 17.7679 28.0618 19.0586 28.0618 20.6508C28.0618 22.2429 29.3524 23.5336 30.9446 23.5336Z" fill="#0033AD"/>
<path d="M59.0555 72.232C60.6477 72.232 61.9384 70.9413 61.9384 69.3492C61.9384 67.757 60.6477 66.4664 59.0555 66.4664C57.4634 66.4664 56.1727 67.757 56.1727 69.3492C56.1727 70.9413 57.4634 72.232 59.0555 72.232Z" fill="#0033AD"/>
<path d="M64.1672 80.0226C65.1769 80.0226 65.9954 79.2042 65.9954 78.1945C65.9954 77.1849 65.1769 76.3664 64.1672 76.3664C63.1576 76.3664 62.3391 77.1849 62.3391 78.1945C62.3391 79.2042 63.1576 80.0226 64.1672 80.0226Z" fill="#0033AD"/>
<path d="M25.8329 13.6335C26.8425 13.6335 27.661 12.8151 27.661 11.8054C27.661 10.7958 26.8425 9.97729 25.8329 9.97729C24.8232 9.97729 24.0048 10.7958 24.0048 11.8054C24.0048 12.8151 24.8232 13.6335 25.8329 13.6335Z" fill="#0033AD"/>
<path d="M45 26.3179C46.8329 26.3179 48.3188 24.8321 48.3188 22.9992C48.3188 21.1663 46.8329 19.6804 45 19.6804C43.1671 19.6804 41.6813 21.1663 41.6813 22.9992C41.6813 24.8321 43.1671 26.3179 45 26.3179Z" fill="#0033AD"/>
<path d="M45 12.15C46.2543 12.15 47.2711 11.1332 47.2711 9.87888C47.2711 8.62459 46.2543 7.60779 45 7.60779C43.7457 7.60779 42.7289 8.62459 42.7289 9.87888C42.7289 11.1332 43.7457 12.15 45 12.15Z" fill="#0033AD"/>
<path d="M45 70.3195C46.8329 70.3195 48.3188 68.8337 48.3188 67.0008C48.3188 65.1679 46.8329 63.682 45 63.682C43.1671 63.682 41.6813 65.1679 41.6813 67.0008C41.6813 68.8337 43.1671 70.3195 45 70.3195Z" fill="#0033AD"/>
<path d="M45 82.3922C46.2543 82.3922 47.2711 81.3754 47.2711 80.1211C47.2711 78.8668 46.2543 77.85 45 77.85C43.7457 77.85 42.7289 78.8668 42.7289 80.1211C42.7289 81.3754 43.7457 82.3922 45 82.3922Z" fill="#0033AD"/>
<path d="M25.9453 37.3218C27.7782 37.3218 29.2641 35.836 29.2641 34.0031C29.2641 32.1702 27.7782 30.6843 25.9453 30.6843C24.1124 30.6843 22.6266 32.1702 22.6266 34.0031C22.6266 35.836 24.1124 37.3218 25.9453 37.3218Z" fill="#0033AD"/>
<path d="M14.5829 29.707C15.8372 29.707 16.854 28.6902 16.854 27.4359C16.854 26.1816 15.8372 25.1648 14.5829 25.1648C13.3286 25.1648 12.3118 26.1816 12.3118 27.4359C12.3118 28.6902 13.3286 29.707 14.5829 29.707Z" fill="#0033AD"/>
<path d="M64.0547 59.3156C65.8876 59.3156 67.3735 57.8297 67.3735 55.9969C67.3735 54.164 65.8876 52.6781 64.0547 52.6781C62.2218 52.6781 60.736 54.164 60.736 55.9969C60.736 57.8297 62.2218 59.3156 64.0547 59.3156Z" fill="#0033AD"/>
<path d="M75.4172 64.8352C76.6715 64.8352 77.6883 63.8184 77.6883 62.5641C77.6883 61.3098 76.6715 60.293 75.4172 60.293C74.1629 60.293 73.1461 61.3098 73.1461 62.5641C73.1461 63.8184 74.1629 64.8352 75.4172 64.8352Z" fill="#0033AD"/>
<path d="M25.9453 59.3156C27.7782 59.3156 29.2641 57.8297 29.2641 55.9969C29.2641 54.164 27.7782 52.6781 25.9453 52.6781C24.1124 52.6781 22.6266 54.164 22.6266 55.9969C22.6266 57.8297 24.1124 59.3156 25.9453 59.3156Z" fill="#0033AD"/>
<path d="M14.5829 64.8352C15.8372 64.8352 16.854 63.8184 16.854 62.5641C16.854 61.3098 15.8372 60.293 14.5829 60.293C13.3286 60.293 12.3118 61.3098 12.3118 62.5641C12.3118 63.8184 13.3286 64.8352 14.5829 64.8352Z" fill="#0033AD"/>
<path d="M64.0547 37.3218C65.8876 37.3218 67.3735 35.836 67.3735 34.0031C67.3735 32.1702 65.8876 30.6843 64.0547 30.6843C62.2218 30.6843 60.736 32.1702 60.736 34.0031C60.736 35.836 62.2218 37.3218 64.0547 37.3218Z" fill="#0033AD"/>
<path d="M75.4172 29.707C76.6715 29.707 77.6883 28.6902 77.6883 27.4359C77.6883 26.1816 76.6715 25.1648 75.4172 25.1648C74.1629 25.1648 73.1461 26.1816 73.1461 27.4359C73.1461 28.6902 74.1629 29.707 75.4172 29.707Z" fill="#0033AD"/>
</svg>
