<svg width="90" height="90" viewBox="0 0 90 90" fill="none" xmlns="http://www.w3.org/2000/svg">
<g clip-path="url(#clip0_9_555)">
<path d="M90 45C90 67.0352 74.1618 85.3715 53.247 89.245C50.5269 89.7487 47.7663 90.0014 45 90C41.9033 90 38.88 89.6878 35.9596 89.0909C15.4396 84.9067 0 66.7561 0 45C0 33.0043 4.69477 22.1015 12.3483 14.0363C12.7912 13.5684 13.2443 13.1103 13.7074 12.6624C21.8057 4.82326 32.8389 0 45 0C57.1611 0 68.1943 4.82326 76.2924 12.6624C76.4834 12.8467 76.6726 13.0328 76.86 13.2207C84.9802 21.3594 90 32.5948 90 45Z" fill="#1BA27A"/>
<path d="M53.247 38.2904V28.2619H76.86V12.6624H12.3483V28.2618H35.9596V38.3289C16.887 39.3042 2.59894 43.3009 2.59894 48.0839C2.59894 52.8668 16.887 56.8635 35.9596 57.8389V89.0909C38.88 89.6878 41.9033 90 45 90C47.8176 90 50.5746 89.7411 53.247 89.2452V57.8774C72.7163 56.9737 87.4011 52.9328 87.4011 48.0839C87.4011 43.235 72.7163 39.1941 53.247 38.2904ZM45 54.248C23.725 54.248 6.47825 51.043 6.47825 47.0885C6.47825 43.7126 19.047 40.8822 35.9598 40.1272V51.5939C38.8225 52.0069 41.7111 52.2144 44.6035 52.2148C47.4958 52.2145 50.3844 52.007 53.2471 51.5939V40.0922C70.5584 40.7957 83.5202 43.6592 83.5202 47.0883C83.52 51.0428 66.2731 54.248 45 54.248Z" fill="#F0EFEB"/>
</g>
<defs>
<clipPath id="clip0_9_555">
<rect width="90" height="90" fill="white"/>
</clipPath>
</defs>
</svg>
