<svg width="120" height="48" viewBox="0 0 120 48" fill="none" xmlns="http://www.w3.org/2000/svg">
<path d="M11.1 32.5C12.08 32.5 12.99 32.33 13.83 31.99C14.69 31.65 15.53 31.17 16.35 30.55L17.55 32.35C17.17 32.69 16.72 33 16.2 33.28C15.7 33.56 15.15 33.8 14.55 34C13.97 34.18 13.36 34.32 12.72 34.42C12.08 34.54 11.44 34.6 10.8 34.6C9.38 34.6 8.08 34.41 6.9 34.03C5.74 33.67 4.75 33.14 3.93 32.44C3.11 31.72 2.47 30.84 2.01 29.8C1.57 28.76 1.35 27.56 1.35 26.2C1.35 24.86 1.56 23.67 1.98 22.63C2.42 21.57 3.02 20.69 3.78 19.99C4.56 19.27 5.48 18.73 6.54 18.37C7.6 17.99 8.77 17.8 10.05 17.8C11.25 17.8 12.38 17.98 13.44 18.34C14.5 18.7 15.42 19.23 16.2 19.93C16.98 20.61 17.6 21.44 18.06 22.42C18.52 23.4 18.75 24.51 18.75 25.75V27.85H5.94C6.18 29.51 6.75 30.7 7.65 31.42C8.57 32.14 9.72 32.5 11.1 32.5ZM10.05 19.75C9.47 19.75 8.93 19.86 8.43 20.08C7.93 20.3 7.49 20.65 7.11 21.13C6.75 21.61 6.45 22.23 6.21 22.99C5.99 23.75 5.87 24.67 5.85 25.75H14.25C14.25 24.71 14.13 23.81 13.89 23.05C13.65 22.29 13.33 21.67 12.93 21.19C12.55 20.69 12.1 20.33 11.58 20.11C11.08 19.87 10.57 19.75 10.05 19.75ZM28.9477 34H24.7477V13H28.9477V34ZM44.7059 32.5C45.6859 32.5 46.5959 32.33 47.4359 31.99C48.2959 31.65 49.1359 31.17 49.9559 30.55L51.1559 32.35C50.7759 32.69 50.3259 33 49.8059 33.28C49.3059 33.56 48.7559 33.8 48.1559 34C47.5759 34.18 46.9659 34.32 46.3259 34.42C45.6859 34.54 45.0459 34.6 44.4059 34.6C42.9859 34.6 41.6859 34.41 40.5059 34.03C39.3459 33.67 38.3559 33.14 37.5359 32.44C36.7159 31.72 36.0759 30.84 35.6159 29.8C35.1759 28.76 34.9559 27.56 34.9559 26.2C34.9559 24.86 35.1659 23.67 35.5859 22.63C36.0259 21.57 36.6259 20.69 37.3859 19.99C38.1659 19.27 39.0859 18.73 40.1459 18.37C41.2059 17.99 42.3759 17.8 43.6559 17.8C44.8559 17.8 45.9859 17.98 47.0459 18.34C48.1059 18.7 49.0259 19.23 49.8059 19.93C50.5859 20.61 51.2059 21.44 51.6659 22.42C52.1259 23.4 52.3559 24.51 52.3559 25.75V27.85H39.5459C39.7859 29.51 40.3559 30.7 41.2559 31.42C42.1759 32.14 43.3259 32.5 44.7059 32.5ZM43.6559 19.75C43.0759 19.75 42.5359 19.86 42.0359 20.08C41.5359 20.3 41.0959 20.65 40.7159 21.13C40.3559 21.61 40.0559 22.23 39.8159 22.99C39.5959 23.75 39.4759 24.67 39.4559 25.75H47.8559C47.8559 24.71 47.7359 23.81 47.4959 23.05C47.2559 22.29 46.9359 21.67 46.5359 21.19C46.1559 20.69 45.7059 20.33 45.1859 20.11C44.6859 19.87 44.1759 19.75 43.6559 19.75ZM96.2801 20.5H92.6801C91.3201 20.5 90.2801 20.87 89.5601 21.61C88.8401 22.33 88.4801 23.41 88.4801 24.85V34H84.2801V24.85C84.2801 22.81 84.9201 21.23 86.2001 20.11C87.5001 18.97 89.3601 18.4 91.7801 18.4H96.2801V20.5ZM108.71 32.65C109.35 32.65 109.95 32.53 110.51 32.29C111.07 32.05 111.56 31.68 111.98 31.18C112.4 30.66 112.73 29.99 112.97 29.17C113.23 28.35 113.36 27.36 113.36 26.2C113.36 25.04 113.23 24.05 112.97 23.23C112.73 22.41 112.4 21.75 111.98 21.25C111.56 20.73 111.07 20.35 110.51 20.11C109.95 19.87 109.35 19.75 108.71 19.75C108.07 19.75 107.47 19.87 106.91 20.11C106.35 20.35 105.86 20.73 105.44 21.25C105.02 21.75 104.68 22.41 104.42 23.23C104.18 24.05 104.06 25.04 104.06 26.2C104.06 27.36 104.18 28.35 104.42 29.17C104.68 29.99 105.02 30.66 105.44 31.18C105.86 31.68 106.35 32.05 106.91 32.29C107.47 32.53 108.07 32.65 108.71 32.65ZM108.71 17.8C110.05 17.8 111.28 17.99 112.4 18.37C113.54 18.73 114.51 19.27 115.31 19.99C116.11 20.69 116.73 21.57 117.17 22.63C117.63 23.67 117.86 24.86 117.86 26.2C117.86 27.56 117.63 28.76 117.17 29.8C116.73 30.84 116.11 31.72 115.31 32.44C114.51 33.14 113.54 33.67 112.4 34.03C111.28 34.41 110.05 34.6 108.71 34.6C107.35 34.6 106.11 34.41 104.99 34.03C103.87 33.67 102.91 33.14 102.11 32.44C101.31 31.72 100.68 30.84 100.22 29.8C99.7802 28.76 99.5602 27.56 99.5602 26.2C99.5602 24.86 99.7802 23.67 100.22 22.63C100.68 21.57 101.31 20.69 102.11 19.99C102.91 19.27 103.87 18.73 104.99 18.37C106.11 17.99 107.35 17.8 108.71 17.8Z" fill="#242529"/>
<path d="M74.839 42.0731C68.8179 47.09 62.5823 44.6766 59.2271 42.0836C58.5245 41.5406 58.557 40.511 59.2195 39.9198C59.8066 39.3958 60.6877 39.4056 61.3231 39.8698C65.9488 43.2492 70.2808 41.736 72.6688 39.9523C73.3133 39.4709 74.2272 39.4259 74.8274 39.9616C75.4644 40.5301 75.4949 41.5266 74.839 42.0731Z" fill="#0033AD"/>
<circle cx="67" cy="26" r="8.5" stroke="#242529" stroke-width="3"/>
<rect x="72.1758" y="19.3503" width="5.586" height="3.42952" rx="1.71476" transform="rotate(-40.271 72.1758 19.3503)" fill="#242529"/>
</svg>
