<svg width="28" height="96" viewBox="0 0 28 96" fill="none" xmlns="http://www.w3.org/2000/svg">
<path d="M8.99908 1C22.5823 14.9893 41.5988 51.7744 8.99908 87" stroke="white"/>
<g clip-path="url(#clip0_9_644)">
<path d="M4.73519 91.8634L16.2095 87.5108C16.3913 87.4406 16.5053 87.2559 16.4828 87.0609C16.4723 86.966 16.4303 86.8774 16.3635 86.8093C16.2967 86.7411 16.2089 86.6974 16.1143 86.685L10.0607 85.8793L9.13919 79.8422C9.11005 79.6479 8.95164 79.4985 8.7569 79.4804C8.62465 79.4671 8.49784 79.5168 8.4096 79.6068C8.36699 79.6502 8.33355 79.7027 8.3123 79.7623L4.18023 91.3178C4.12356 91.4759 4.16403 91.6513 4.28334 91.7684C4.40265 91.8854 4.57878 91.9225 4.73519 91.8634Z" fill="white"/>
</g>
<defs>
<clipPath id="clip0_9_644">
<rect width="12" height="12" fill="white" transform="translate(16.9698 87.4038) rotate(134.451)"/>
</clipPath>
</defs>
</svg>
