<svg width="28" height="96" viewBox="0 0 28 96" fill="none" xmlns="http://www.w3.org/2000/svg">
<path d="M19.0003 1C5.41616 14.9893 -13.6017 51.7744 19.0003 87" stroke="white"/>
<g clip-path="url(#clip0_9_649)">
<path d="M23.2645 91.8634L11.7894 87.5108C11.6076 87.4406 11.4936 87.2559 11.5161 87.0609C11.5265 86.966 11.5685 86.8774 11.6353 86.8093C11.7022 86.7411 11.7899 86.6974 11.8846 86.685L17.9386 85.8793L18.8602 79.8422C18.8893 79.6479 19.0477 79.4985 19.2425 79.4804C19.3747 79.4671 19.5016 79.5168 19.5898 79.6068C19.6324 79.6502 19.6659 79.7027 19.6871 79.7623L23.8195 91.3178C23.8761 91.4759 23.8357 91.6513 23.7163 91.7684C23.597 91.8854 23.4209 91.9225 23.2645 91.8634Z" fill="white"/>
</g>
<defs>
<clipPath id="clip0_9_649">
<rect width="12.0004" height="12.0004" fill="white" transform="matrix(0.700327 0.713822 0.71387 -0.700279 11.0291 87.4038)"/>
</clipPath>
</defs>
</svg>
