<svg width="24" height="24" viewBox="0 0 24 24" fill="none" xmlns="http://www.w3.org/2000/svg">
<rect width="24" height="24" rx="2" fill="#FD5638"/>
<path d="M11.3842 18.1797C11.3418 18.1797 11.2998 18.171 11.2609 18.1539C11.222 18.1369 11.1871 18.1121 11.1583 18.0809L5.06637 11.4912C5.02576 11.4473 4.99883 11.3924 4.98889 11.3334C4.97896 11.2744 4.98643 11.2138 5.01041 11.159C5.03438 11.1042 5.07382 11.0576 5.12388 11.0248C5.17395 10.9921 5.23248 10.9746 5.2923 10.9746H8.22461C8.26864 10.9746 8.31215 10.9841 8.35222 11.0023C8.39228 11.0206 8.42796 11.0472 8.45686 11.0805L10.4928 13.4227C10.7128 12.9524 11.1388 12.1693 11.8862 11.215C12.9912 9.8042 15.0465 7.7294 18.563 5.85642C18.6309 5.82023 18.71 5.81083 18.7845 5.83009C18.8591 5.84936 18.9237 5.89587 18.9656 5.96046C19.0076 6.02504 19.0238 6.103 19.011 6.17894C18.9983 6.25488 18.9575 6.32328 18.8968 6.37064C18.8834 6.38113 17.5276 7.44882 15.9672 9.40448C14.5311 11.2042 12.6221 14.1469 11.6828 17.946C11.6663 18.0128 11.6279 18.0721 11.5738 18.1144C11.5196 18.1568 11.4529 18.1799 11.3841 18.1799L11.3842 18.1797Z" fill="white"/>
</svg>
