<svg width="50" height="50" viewBox="0 0 50 50" fill="none" xmlns="http://www.w3.org/2000/svg">
<path d="M46.9102 48.3146H45.5057V4.21348C45.5057 3.98998 45.4169 3.77565 45.2589 3.61761C45.1008 3.45958 44.8865 3.3708 44.663 3.3708H28.9326C28.822 3.37079 28.7124 3.39258 28.6102 3.43492C28.5079 3.47726 28.415 3.53933 28.3368 3.61759C28.2585 3.69584 28.1964 3.78874 28.1541 3.89098C28.1117 3.99323 28.09 4.10281 28.09 4.21348V7.86514H26.4046V4.21348C26.4046 3.98998 26.3158 3.77565 26.1578 3.61761C25.9998 3.45958 25.7854 3.3708 25.5619 3.3708H21.9102V0.842676C21.9102 0.377148 21.5328 0 21.0675 0C20.6022 0 20.2248 0.377148 20.2248 0.842676V3.3708H16.5732C16.4625 3.37079 16.3529 3.39258 16.2507 3.43492C16.1484 3.47726 16.0555 3.53933 15.9773 3.61759C15.899 3.69584 15.837 3.78874 15.7946 3.89098C15.7523 3.99323 15.7305 4.10281 15.7305 4.21348V7.86514H13.2024C13.0917 7.86512 12.9821 7.88691 12.8799 7.92926C12.7776 7.9716 12.6847 8.03367 12.6065 8.11192C12.5282 8.19018 12.4662 8.28308 12.4238 8.38532C12.3815 8.48756 12.3597 8.59715 12.3597 8.70781V15.7303H5.33723C5.22657 15.7303 5.11698 15.752 5.01474 15.7944C4.91249 15.8367 4.81959 15.8988 4.74134 15.9771C4.66309 16.0553 4.60102 16.1482 4.55867 16.2505C4.51633 16.3527 4.49454 16.4623 4.49456 16.5729V48.3146H3.08987C2.62444 48.3146 2.24719 48.6917 2.24719 49.1572C2.24719 49.6228 2.62454 50 3.08987 50H46.9102C47.3756 50 47.7529 49.6229 47.7529 49.1573C47.7529 48.6918 47.3755 48.3146 46.9102 48.3146ZM17.4157 5.05615H24.7191V7.86514H17.4157V5.05615ZM14.6068 48.3146H14.0449V46.9102C14.0449 46.4446 13.6676 46.0675 13.2023 46.0675C12.7369 46.0675 12.3596 46.4446 12.3596 46.9102V48.3146H11.7978V45.5057H14.6068V48.3146ZM20.2247 26.6854V48.3146H16.2921V44.663C16.2921 44.4395 16.2033 44.2252 16.0453 44.0671C15.8873 43.9091 15.6729 43.8203 15.4494 43.8203H10.9551C10.8444 43.8203 10.7349 43.8421 10.6326 43.8844C10.5304 43.9268 10.4375 43.9888 10.3592 44.0671C10.281 44.1453 10.2189 44.2383 10.1765 44.3405C10.1342 44.4427 10.1124 44.5523 10.1124 44.663V48.3146H6.17981V17.4157H20.2247V26.6854ZM21.0674 15.7304H14.0449V9.55059H28.0899V25.8427H21.9102V23.0337H24.4383C24.9037 23.0337 25.281 22.6565 25.281 22.191C25.281 21.7255 24.9036 21.3483 24.4383 21.3483H21.9102V18.5394H24.4383C24.9037 18.5394 25.281 18.1622 25.281 17.6967C25.281 17.2312 24.9036 16.854 24.4383 16.854H21.9102V16.5731C21.9102 16.4625 21.8884 16.3529 21.8461 16.2506C21.8037 16.1484 21.7416 16.0554 21.6634 15.9772C21.5851 15.8989 21.4922 15.8368 21.3899 15.7945C21.2877 15.7521 21.1781 15.7304 21.0674 15.7304ZM35.9551 48.3146H21.9102V27.5281H35.9551V48.3146ZM43.8202 48.3146H37.6405V25.5617C37.6405 25.0962 37.2631 24.719 36.7978 24.719C36.3325 24.719 35.9551 25.0962 35.9551 25.5617V25.8426H34.2698V25.5617C34.2698 25.0962 33.8924 24.719 33.4271 24.719C32.9617 24.719 32.5844 25.0962 32.5844 25.5617V25.8426H29.7754V5.05615H43.8203V48.3146H43.8202Z" fill="#8E8E8E"/>
<path d="M25.5618 46.6294C25.7853 46.6294 25.9996 46.5406 26.1576 46.3825C26.3157 46.2245 26.4045 46.0102 26.4045 45.7867V30.0564C26.4045 29.5909 26.0271 29.2138 25.5618 29.2138C25.0965 29.2138 24.7191 29.5909 24.7191 30.0564V45.7868C24.7191 45.8975 24.7409 46.007 24.7833 46.1093C24.8256 46.2115 24.8877 46.3044 24.966 46.3826C25.0442 46.4609 25.1371 46.5229 25.2393 46.5653C25.3416 46.6076 25.4512 46.6294 25.5618 46.6294ZM28.9326 46.6294C29.1561 46.6294 29.3704 46.5406 29.5285 46.3825C29.6865 46.2245 29.7753 46.0102 29.7753 45.7867V30.0564C29.7753 29.5909 29.3979 29.2138 28.9326 29.2138C28.4673 29.2138 28.0899 29.5909 28.0899 30.0564V45.7868C28.0899 45.8975 28.1117 46.007 28.1541 46.1093C28.1964 46.2115 28.2585 46.3044 28.3368 46.3826C28.415 46.4609 28.5079 46.5229 28.6101 46.5653C28.7124 46.6076 28.822 46.6294 28.9326 46.6294ZM32.3033 46.6294C32.5268 46.6294 32.7411 46.5406 32.8992 46.3825C33.0572 46.2245 33.146 46.0102 33.146 45.7867V30.0564C33.146 29.5909 32.7687 29.2138 32.3033 29.2138C31.838 29.2138 31.4606 29.5909 31.4606 30.0564V45.7868C31.4607 46.0103 31.5495 46.2246 31.7075 46.3826C31.8655 46.5406 32.0798 46.6294 32.3033 46.6294ZM33.427 10.6741C33.5376 10.6741 33.6472 10.6523 33.7494 10.61C33.8517 10.5677 33.9446 10.5056 34.0228 10.4273C34.1011 10.3491 34.1632 10.2562 34.2055 10.1539C34.2479 10.0517 34.2696 9.94211 34.2696 9.83145V8.70791C34.2696 8.24238 33.8923 7.86523 33.427 7.86523C32.9616 7.86523 32.5843 8.24238 32.5843 8.70791V9.83154C32.5843 9.9422 32.6061 10.0518 32.6484 10.154C32.6908 10.2562 32.7528 10.3491 32.8311 10.4274C32.9093 10.5056 33.0022 10.5677 33.1045 10.61C33.2067 10.6523 33.3163 10.6741 33.427 10.6741ZM36.7978 10.6741C36.9084 10.6741 37.018 10.6523 37.1202 10.61C37.2225 10.5677 37.3154 10.5056 37.3936 10.4273C37.4719 10.3491 37.534 10.2562 37.5763 10.1539C37.6187 10.0517 37.6404 9.94211 37.6404 9.83145V8.70791C37.6404 8.24238 37.2631 7.86523 36.7978 7.86523C36.3324 7.86523 35.9551 8.24238 35.9551 8.70791V9.83154C35.9551 9.9422 35.9769 10.0518 36.0192 10.154C36.0616 10.2562 36.1236 10.3491 36.2019 10.4274C36.2801 10.5056 36.373 10.5677 36.4753 10.61C36.5775 10.6523 36.6871 10.6741 36.7978 10.6741ZM40.1686 10.6741C40.2792 10.6741 40.3888 10.6523 40.491 10.61C40.5933 10.5677 40.6862 10.5056 40.7644 10.4273C40.8427 10.3491 40.9048 10.2562 40.9471 10.1539C40.9895 10.0517 41.0112 9.94211 41.0112 9.83145V8.70791C41.0112 8.24238 40.6339 7.86523 40.1686 7.86523C39.7032 7.86523 39.3259 8.24238 39.3259 8.70791V9.83154C39.3259 9.9422 39.3477 10.0518 39.39 10.154C39.4324 10.2562 39.4944 10.3491 39.5727 10.4274C39.651 10.5056 39.7438 10.5677 39.8461 10.61C39.9483 10.6523 40.0579 10.6741 40.1686 10.6741ZM33.427 16.2921C33.5376 16.2921 33.6472 16.2703 33.7494 16.228C33.8517 16.1856 33.9446 16.1236 34.0228 16.0453C34.1011 15.9671 34.1632 15.8742 34.2055 15.7719C34.2479 15.6697 34.2696 15.5601 34.2696 15.4494V14.3258C34.2696 13.8603 33.8923 13.4831 33.427 13.4831C32.9616 13.4831 32.5843 13.8603 32.5843 14.3258V15.4494C32.5843 15.5601 32.6061 15.6697 32.6484 15.7719C32.6907 15.8742 32.7528 15.9671 32.8311 16.0453C32.9093 16.1236 33.0022 16.1856 33.1045 16.228C33.2067 16.2703 33.3163 16.2921 33.427 16.2921ZM36.7978 16.2921C36.9084 16.2921 37.018 16.2703 37.1202 16.228C37.2225 16.1856 37.3154 16.1236 37.3936 16.0453C37.4719 15.9671 37.534 15.8742 37.5763 15.7719C37.6187 15.6697 37.6404 15.5601 37.6404 15.4494V14.3258C37.6404 13.8603 37.2631 13.4831 36.7978 13.4831C36.3324 13.4831 35.9551 13.8603 35.9551 14.3258V15.4494C35.9551 15.5601 35.9769 15.6697 36.0192 15.7719C36.0615 15.8742 36.1236 15.9671 36.2019 16.0453C36.2801 16.1236 36.373 16.1856 36.4753 16.228C36.5775 16.2703 36.6871 16.2921 36.7978 16.2921ZM40.1686 16.2921C40.2792 16.2921 40.3888 16.2703 40.491 16.228C40.5933 16.1856 40.6862 16.1236 40.7644 16.0453C40.8427 15.9671 40.9048 15.8742 40.9471 15.7719C40.9895 15.6697 41.0112 15.5601 41.0112 15.4494V14.3258C41.0112 13.8603 40.6339 13.4831 40.1686 13.4831C39.7032 13.4831 39.3259 13.8603 39.3259 14.3258V15.4494C39.3259 15.5601 39.3477 15.6697 39.39 15.7719C39.4323 15.8742 39.4944 15.9671 39.5727 16.0453C39.6509 16.1236 39.7438 16.1856 39.8461 16.228C39.9483 16.2703 40.0579 16.2921 40.1686 16.2921ZM33.427 21.9102C33.5376 21.9102 33.6472 21.8884 33.7494 21.846C33.8517 21.8037 33.9446 21.7416 34.0228 21.6634C34.1011 21.5851 34.1632 21.4922 34.2055 21.39C34.2479 21.2877 34.2696 21.1781 34.2696 21.0675V19.9438C34.2696 19.4783 33.8923 19.1012 33.427 19.1012C32.9616 19.1012 32.5843 19.4783 32.5843 19.9438V21.0675C32.5843 21.291 32.6731 21.5053 32.8311 21.6633C32.9891 21.8214 33.2035 21.9102 33.427 21.9102ZM36.7978 21.9102C36.9084 21.9102 37.018 21.8884 37.1202 21.846C37.2225 21.8037 37.3154 21.7416 37.3936 21.6634C37.4719 21.5851 37.534 21.4922 37.5763 21.39C37.6187 21.2877 37.6404 21.1781 37.6404 21.0675V19.9438C37.6404 19.4783 37.2631 19.1012 36.7978 19.1012C36.3324 19.1012 35.9551 19.4783 35.9551 19.9438V21.0675C35.9551 21.291 36.0439 21.5053 36.2019 21.6633C36.3599 21.8214 36.5743 21.9102 36.7978 21.9102ZM40.1686 21.9102C40.2792 21.9102 40.3888 21.8884 40.491 21.846C40.5933 21.8037 40.6862 21.7416 40.7644 21.6634C40.8427 21.5851 40.9048 21.4922 40.9471 21.39C40.9895 21.2877 41.0112 21.1781 41.0112 21.0675V19.9438C41.0112 19.4783 40.6339 19.1012 40.1686 19.1012C39.7032 19.1012 39.3259 19.4783 39.3259 19.9438V21.0675C39.3259 21.291 39.4147 21.5053 39.5727 21.6633C39.7307 21.8214 39.9451 21.9102 40.1686 21.9102ZM9.83145 24.1573C9.94211 24.1573 10.0517 24.1355 10.1539 24.0932C10.2562 24.0509 10.3491 23.9888 10.4273 23.9105C10.5056 23.8323 10.5677 23.7394 10.61 23.6371C10.6523 23.5349 10.6741 23.4253 10.6741 23.3146V22.191C10.6741 21.7255 10.2968 21.3483 9.83145 21.3483C9.36611 21.3483 8.98877 21.7255 8.98877 22.191V23.3146C8.9888 23.5381 9.07759 23.7525 9.23561 23.9105C9.39364 24.0685 9.60796 24.1573 9.83145 24.1573ZM13.2022 24.1573C13.3129 24.1573 13.4225 24.1355 13.5247 24.0932C13.627 24.0509 13.7199 23.9888 13.7981 23.9105C13.8764 23.8323 13.9385 23.7394 13.9808 23.6371C14.0231 23.5349 14.0449 23.4253 14.0449 23.3146V22.191C14.0449 21.7255 13.6676 21.3483 13.2022 21.3483C12.7369 21.3483 12.3596 21.7255 12.3596 22.191V23.3146C12.3596 23.5381 12.4484 23.7525 12.6064 23.9105C12.7644 24.0685 12.9788 24.1573 13.2022 24.1573ZM16.573 24.1573C16.6837 24.1573 16.7933 24.1355 16.8955 24.0932C16.9978 24.0509 17.0907 23.9888 17.1689 23.9105C17.2472 23.8323 17.3093 23.7394 17.3516 23.6371C17.3939 23.5349 17.4157 23.4253 17.4157 23.3146V22.191C17.4157 21.7255 17.0384 21.3483 16.573 21.3483C16.1077 21.3483 15.7304 21.7255 15.7304 22.191V23.3146C15.7304 23.5381 15.8192 23.7525 15.9772 23.9105C16.1352 24.0685 16.3496 24.1573 16.573 24.1573ZM9.83145 29.7753C9.94211 29.7753 10.0517 29.7535 10.1539 29.7112C10.2562 29.6688 10.3491 29.6068 10.4273 29.5285C10.5056 29.4503 10.5677 29.3574 10.61 29.2551C10.6523 29.1529 10.6741 29.0433 10.6741 28.9326V27.809C10.6741 27.3435 10.2968 26.9663 9.83145 26.9663C9.36611 26.9663 8.98877 27.3435 8.98877 27.809V28.9326C8.9888 29.1561 9.07759 29.3704 9.23561 29.5284C9.39364 29.6865 9.60796 29.7753 9.83145 29.7753ZM13.2022 29.7753C13.3129 29.7753 13.4225 29.7535 13.5247 29.7112C13.627 29.6688 13.7199 29.6068 13.7981 29.5285C13.8764 29.4503 13.9385 29.3574 13.9808 29.2551C14.0231 29.1529 14.0449 29.0433 14.0449 28.9326V27.809C14.0449 27.3435 13.6676 26.9663 13.2022 26.9663C12.7369 26.9663 12.3596 27.3435 12.3596 27.809V28.9326C12.3596 29.1561 12.4484 29.3704 12.6064 29.5285C12.7644 29.6865 12.9788 29.7753 13.2022 29.7753ZM16.573 29.7753C16.6837 29.7753 16.7933 29.7535 16.8955 29.7112C16.9978 29.6688 17.0907 29.6068 17.1689 29.5285C17.2472 29.4503 17.3093 29.3574 17.3516 29.2551C17.3939 29.1529 17.4157 29.0433 17.4157 28.9326V27.809C17.4157 27.3435 17.0384 26.9663 16.573 26.9663C16.1077 26.9663 15.7304 27.3435 15.7304 27.809V28.9326C15.7304 29.1561 15.8192 29.3704 15.9772 29.5285C16.1352 29.6865 16.3496 29.7753 16.573 29.7753ZM9.83145 35.3933C9.94211 35.3933 10.0517 35.3715 10.1539 35.3291C10.2562 35.2868 10.3491 35.2247 10.4273 35.1465C10.5056 35.0682 10.5677 34.9753 10.61 34.8731C10.6523 34.7708 10.6741 34.6612 10.6741 34.5506V33.427C10.6741 32.9614 10.2968 32.5843 9.83145 32.5843C9.36611 32.5843 8.98877 32.9614 8.98877 33.427V34.5506C8.98877 34.6612 9.01057 34.7708 9.05291 34.8731C9.09526 34.9753 9.15733 35.0682 9.23558 35.1464C9.31383 35.2247 9.40673 35.2868 9.50897 35.3291C9.61121 35.3715 9.72078 35.3933 9.83145 35.3933ZM13.2022 35.3933C13.3129 35.3933 13.4225 35.3715 13.5247 35.3291C13.627 35.2868 13.7199 35.2247 13.7981 35.1465C13.8764 35.0682 13.9385 34.9753 13.9808 34.8731C14.0231 34.7708 14.0449 34.6612 14.0449 34.5506V33.427C14.0449 32.9614 13.6676 32.5843 13.2022 32.5843C12.7369 32.5843 12.3596 32.9614 12.3596 33.427V34.5506C12.3596 34.6612 12.3813 34.7708 12.4237 34.8731C12.466 34.9753 12.5281 35.0682 12.6064 35.1465C12.6846 35.2247 12.7775 35.2868 12.8798 35.3291C12.982 35.3715 13.0916 35.3933 13.2022 35.3933ZM16.573 35.3933C16.6837 35.3933 16.7933 35.3715 16.8955 35.3291C16.9978 35.2868 17.0907 35.2247 17.1689 35.1465C17.2472 35.0682 17.3093 34.9753 17.3516 34.8731C17.3939 34.7708 17.4157 34.6612 17.4157 34.5506V33.427C17.4157 32.9614 17.0384 32.5843 16.573 32.5843C16.1077 32.5843 15.7304 32.9614 15.7304 33.427V34.5506C15.7304 34.6612 15.7521 34.7708 15.7945 34.8731C15.8368 34.9753 15.8989 35.0682 15.9772 35.1465C16.0554 35.2247 16.1483 35.2868 16.2506 35.3291C16.3528 35.3715 16.4624 35.3933 16.573 35.3933ZM9.83145 41.0112C9.94211 41.0112 10.0517 40.9895 10.1539 40.9471C10.2562 40.9048 10.3491 40.8427 10.4273 40.7644C10.5056 40.6862 10.5677 40.5933 10.61 40.491C10.6523 40.3888 10.6741 40.2792 10.6741 40.1685V39.0449C10.6741 38.5794 10.2968 38.2022 9.83145 38.2022C9.36611 38.2022 8.98877 38.5794 8.98877 39.0449V40.1685C8.98877 40.392 9.07755 40.6064 9.23558 40.7644C9.39362 40.9224 9.60795 41.0112 9.83145 41.0112ZM13.2022 41.0112C13.3129 41.0112 13.4225 40.9895 13.5247 40.9471C13.627 40.9048 13.7199 40.8427 13.7981 40.7644C13.8764 40.6862 13.9385 40.5933 13.9808 40.491C14.0231 40.3888 14.0449 40.2792 14.0449 40.1685V39.0449C14.0449 38.5794 13.6676 38.2022 13.2022 38.2022C12.7369 38.2022 12.3596 38.5794 12.3596 39.0449V40.1685C12.3596 40.2792 12.3813 40.3888 12.4237 40.491C12.466 40.5933 12.5281 40.6862 12.6064 40.7644C12.6846 40.8427 12.7775 40.9048 12.8798 40.9471C12.982 40.9895 13.0916 41.0112 13.2022 41.0112ZM16.573 41.0112C16.6837 41.0112 16.7933 40.9895 16.8955 40.9471C16.9978 40.9048 17.0907 40.8427 17.1689 40.7644C17.2472 40.6862 17.3093 40.5933 17.3516 40.491C17.3939 40.3888 17.4157 40.2792 17.4157 40.1685V39.0449C17.4157 38.5794 17.0384 38.2022 16.573 38.2022C16.1077 38.2022 15.7304 38.5794 15.7304 39.0449V40.1685C15.7304 40.2792 15.7521 40.3888 15.7945 40.491C15.8368 40.5933 15.8989 40.6862 15.9772 40.7644C16.0554 40.8427 16.1483 40.9048 16.2506 40.9471C16.3528 40.9895 16.4624 41.0112 16.573 41.0112ZM40.1686 27.5281C40.2792 27.5281 40.3888 27.5063 40.491 27.464C40.5933 27.4217 40.6862 27.3596 40.7644 27.2813C40.8427 27.2031 40.9048 27.1102 40.9471 27.0079C40.9895 26.9057 41.0112 26.7961 41.0112 26.6854V25.5618C41.0112 25.0963 40.6339 24.7191 40.1686 24.7191C39.7032 24.7191 39.3259 25.0963 39.3259 25.5618V26.6854C39.3259 26.9089 39.4147 27.1233 39.5727 27.2813C39.7307 27.4393 39.9451 27.5281 40.1686 27.5281ZM40.1686 33.1461C40.2792 33.1461 40.3888 33.1243 40.491 33.082C40.5933 33.0396 40.6862 32.9776 40.7644 32.8993C40.8427 32.8211 40.9048 32.7282 40.9471 32.6259C40.9895 32.5237 41.0112 32.4141 41.0112 32.3034V31.1798C41.0112 30.7143 40.6339 30.3371 40.1686 30.3371C39.7032 30.3371 39.3259 30.7143 39.3259 31.1798V32.3034C39.3259 32.5269 39.4147 32.7412 39.5727 32.8993C39.7307 33.0573 39.9451 33.1461 40.1686 33.1461ZM40.1686 38.7641C40.2792 38.7641 40.3888 38.7423 40.491 38.6999C40.5933 38.6576 40.6862 38.5955 40.7644 38.5173C40.8427 38.439 40.9048 38.3461 40.9471 38.2439C40.9895 38.1416 41.0112 38.032 41.0112 37.9214V36.7978C41.0112 36.3322 40.6339 35.9551 40.1686 35.9551C39.7032 35.9551 39.3259 36.3322 39.3259 36.7978V37.9214C39.3259 38.032 39.3477 38.1416 39.39 38.2439C39.4324 38.3461 39.4944 38.439 39.5727 38.5172C39.6509 38.5955 39.7438 38.6576 39.8461 38.6999C39.9483 38.7423 40.0579 38.7641 40.1686 38.7641ZM40.1686 44.382C40.2792 44.382 40.3888 44.3603 40.491 44.3179C40.5933 44.2756 40.6862 44.2135 40.7644 44.1352C40.8427 44.057 40.9048 43.9641 40.9471 43.8618C40.9895 43.7596 41.0112 43.65 41.0112 43.5394V42.4157C41.0112 41.9502 40.6339 41.573 40.1686 41.573C39.7032 41.573 39.3259 41.9502 39.3259 42.4157V43.5394C39.3259 43.7628 39.4147 43.9772 39.5727 44.1352C39.7307 44.2932 39.9451 44.382 40.1686 44.382ZM25.2809 13.2022C25.2809 12.9788 25.1921 12.7644 25.034 12.6064C24.876 12.4484 24.6617 12.3596 24.4382 12.3596H17.6966C17.5859 12.3596 17.4763 12.3813 17.3741 12.4237C17.2718 12.466 17.1789 12.5281 17.1007 12.6064C17.0224 12.6846 16.9604 12.7775 16.918 12.8798C16.8757 12.982 16.8539 13.0916 16.8539 13.2022C16.8539 13.4257 16.9427 13.6401 17.1007 13.7981C17.2588 13.9561 17.4731 14.0449 17.6966 14.0449H24.4382C24.5488 14.0449 24.6584 14.0231 24.7607 13.9808C24.8629 13.9385 24.9558 13.8764 25.0341 13.7981C25.1123 13.7199 25.1744 13.627 25.2167 13.5247C25.2591 13.4225 25.2809 13.3129 25.2809 13.2022Z" fill="#8E8E8E"/>
</svg>
