<svg width="50" height="50" viewBox="0 0 50 50" fill="none" xmlns="http://www.w3.org/2000/svg">
<path d="M40.9075 27.1172L40.9241 27.1384C41.1165 27.3852 41.356 27.5913 41.6286 27.745C41.9013 27.8986 42.2017 27.9966 42.5125 28.0334C42.6099 28.0452 42.7079 28.0511 42.806 28.0512C43.3367 28.0516 43.852 27.8734 44.269 27.5452L49.0875 23.7718C49.5843 23.3817 49.9061 22.8105 49.9824 22.1834C50.0586 21.5564 49.8831 20.9247 49.4943 20.4268L41.6849 10.455C41.2948 9.95811 40.7236 9.63625 40.0965 9.55996C39.4695 9.48368 38.8378 9.6592 38.3399 10.048L33.5216 13.8215C33.1999 14.0736 32.9486 14.4042 32.7916 14.7814C32.6345 15.1587 32.5772 15.57 32.625 15.9759C32.1669 15.9452 31.71 15.8998 31.2549 15.8399C29.9513 15.4609 28.7417 15.3303 27.6572 15.4509C27.6164 15.4555 27.5759 15.4632 27.5363 15.4741C25.9347 15.9153 24.123 16.502 22.1341 17.2227C20.4943 16.9479 18.8989 16.4543 17.3904 15.7554C17.3996 15.3843 17.322 15.0162 17.1636 14.6804C17.0053 14.3447 16.7706 14.0507 16.4784 13.8218L11.6601 10.0479C11.1623 9.65916 10.5306 9.48367 9.90355 9.55995C9.27651 9.63624 8.70531 9.95806 8.31521 10.4549L0.505737 20.4268C0.116881 20.9247 -0.0586738 21.5564 0.0175747 22.1834C0.0938232 22.8105 0.41565 23.3817 0.912475 23.7719L5.73093 27.5452C6.14791 27.8734 6.66327 28.0516 7.19392 28.0512C7.29204 28.0511 7.39007 28.0452 7.48747 28.0334C7.8331 27.992 8.16544 27.8753 8.46111 27.6916C9.3614 28.7053 10.2518 29.5013 11.1218 30.0723C10.9345 30.4064 10.8265 30.7792 10.8061 31.1617C10.7856 31.5442 10.8533 31.9264 11.0039 32.2786C11.1545 32.6309 11.3839 32.9438 11.6746 33.1934C11.9652 33.4429 12.3093 33.6224 12.6802 33.718C12.5549 34.1764 12.5626 34.6611 12.7023 35.1153C12.842 35.5696 13.108 35.9748 13.4692 36.2836C13.8305 36.5925 14.2722 36.7922 14.7426 36.8595C15.2131 36.9268 15.6931 36.859 16.1264 36.6639C16.2947 37.1585 16.6138 37.5878 17.0389 37.8916C17.464 38.1953 17.9736 38.3581 18.4961 38.357C18.5965 38.3568 18.6968 38.3507 18.7966 38.3388C18.8675 38.7956 19.0636 39.2239 19.363 39.5763C19.6624 39.9286 20.0535 40.1911 20.493 40.3348C20.9324 40.4785 21.4031 40.4977 21.8528 40.3904C22.3025 40.283 22.7137 40.0532 23.0409 39.7265L24.5829 38.1847C24.6978 38.0696 24.8012 37.9436 24.8918 37.8086L27.0864 39.2578C27.4369 39.4895 27.8401 39.6293 28.2588 39.6642C28.6775 39.6992 29.0983 39.6281 29.4824 39.4577C29.8664 39.2872 30.2014 39.0228 30.4564 38.6889C30.7114 38.3549 30.8782 37.9621 30.9415 37.5468C31.3368 37.6674 31.7559 37.6878 32.161 37.6063C32.5662 37.5248 32.9448 37.3439 33.2627 37.0798C33.5806 36.8157 33.828 36.4768 33.9824 36.0935C34.1369 35.7101 34.1937 35.2944 34.1477 34.8837C34.7233 34.7877 35.2471 34.4932 35.6281 34.0513C36.0092 33.6094 36.2235 33.048 36.2338 32.4646C36.2406 32.4646 36.2473 32.4653 36.2541 32.4653C36.4253 32.4653 36.5962 32.4479 36.7639 32.4135C37.1175 32.3426 37.4514 32.1956 37.7425 31.9827C38.0336 31.7698 38.2748 31.4961 38.4495 31.1806C38.6242 30.8651 38.7281 30.5154 38.7541 30.1557C38.7801 29.796 38.7274 29.4349 38.5999 29.0976C39.357 28.6713 40.0879 28.043 40.9075 27.1172ZM34.4849 15.0515L39.3032 11.2781C39.4745 11.1442 39.692 11.0837 39.9079 11.11C40.1238 11.1363 40.3204 11.2471 40.4547 11.4182L48.2642 21.3902C48.3976 21.5618 48.4577 21.7791 48.4314 21.9948C48.4052 22.2105 48.2947 22.407 48.1241 22.5416L43.3056 26.3151C43.1341 26.4485 42.9168 26.5085 42.7011 26.4823C42.4854 26.456 42.2888 26.3456 42.1543 26.175L34.3448 16.203C34.2109 16.0316 34.1505 15.8142 34.1768 15.5983C34.203 15.3824 34.3139 15.1858 34.4849 15.0515ZM7.2988 26.4823C7.19199 26.4958 7.08356 26.4879 6.9798 26.4592C6.87604 26.4305 6.77901 26.3815 6.69431 26.315L1.87585 22.5417C1.7053 22.4071 1.59487 22.2105 1.56864 21.9948C1.54241 21.7791 1.6025 21.5618 1.73581 21.3902L9.54529 11.4181C9.67952 11.2471 9.87614 11.1362 10.092 11.11C10.3079 11.0837 10.5253 11.1442 10.6967 11.2781L15.515 15.0515C15.6861 15.1858 15.7969 15.3824 15.8232 15.5983C15.8495 15.8142 15.789 16.0316 15.6551 16.203L7.84578 26.175C7.77943 26.2598 7.69693 26.3306 7.60304 26.3834C7.50916 26.4361 7.40576 26.4698 7.2988 26.4823ZM12.6413 30.6281L15.4847 27.7847C15.6619 27.6103 15.9008 27.5129 16.1493 27.5139C16.3979 27.5149 16.636 27.614 16.8118 27.7898C16.9876 27.9656 17.0868 28.2037 17.0878 28.4523C17.0888 28.7008 16.9914 28.9397 16.8171 29.1169L13.9736 31.9603C13.7965 32.1347 13.5576 32.2321 13.309 32.2311C13.0604 32.2301 12.8223 32.131 12.6465 31.9552C12.4707 31.7794 12.3716 31.5413 12.3706 31.2927C12.3696 31.0442 12.4669 30.8053 12.6413 30.6281ZM15.094 35.3223C14.9704 35.323 14.8479 35.2992 14.7335 35.2522C14.6192 35.2053 14.5153 35.1362 14.4278 35.0488C14.2514 34.872 14.1524 34.6324 14.1524 34.3826C14.1524 34.1328 14.2514 33.8933 14.4278 33.7164L15.0755 33.0688L15.0787 33.0657L17.9222 30.2223L17.9228 30.2217L18.573 29.5716C18.7497 29.3949 18.9893 29.2957 19.2391 29.2957C19.489 29.2957 19.7286 29.3949 19.9052 29.5716C20.0819 29.7482 20.1812 29.9878 20.1812 30.2377C20.1812 30.4875 20.0819 30.7271 19.9052 30.9038L15.7601 35.0488C15.6727 35.1362 15.5688 35.2053 15.4545 35.2522C15.3401 35.2992 15.2176 35.323 15.094 35.3223ZM17.8299 36.5208C17.6534 36.344 17.5543 36.1044 17.5543 35.8546C17.5543 35.6048 17.6534 35.3653 17.8299 35.1885L20.045 32.9733C20.1325 32.8858 20.2363 32.8165 20.3506 32.7691C20.4649 32.7218 20.5874 32.6974 20.7112 32.6974C20.8349 32.6974 20.9574 32.7218 21.0717 32.7691C21.186 32.8165 21.2898 32.8858 21.3773 32.9733C21.4648 33.0608 21.5342 33.1647 21.5815 33.279C21.6289 33.3933 21.6532 33.5158 21.6532 33.6395C21.6532 33.7632 21.6289 33.8857 21.5815 34C21.5342 34.1143 21.4648 34.2182 21.3773 34.3057L21.0442 34.6389L21.0406 34.6422L19.162 36.5208C18.9846 36.6962 18.7453 36.7946 18.4958 36.7946C18.2464 36.7946 18.007 36.6962 17.8297 36.5208H17.8299ZM23.4779 37.0795L21.9361 38.6214C21.7594 38.7981 21.5198 38.8974 21.27 38.8974C21.0201 38.8974 20.7804 38.7982 20.6037 38.6215C20.427 38.4449 20.3277 38.2052 20.3277 37.9554C20.3277 37.7055 20.4269 37.4658 20.6036 37.2891L22.1456 35.7473C22.3223 35.5706 22.5619 35.4713 22.8117 35.4713C23.0616 35.4713 23.3012 35.5706 23.4779 35.7473C23.6546 35.9239 23.7538 36.1636 23.7538 36.4134C23.7538 36.6633 23.6546 36.9029 23.4779 37.0796V37.0795ZM37.0485 30.4805C36.9099 30.6879 36.6951 30.8322 36.4508 30.8823C36.2064 30.9323 35.9521 30.8839 35.7432 30.7475L35.2225 30.4038C35.1862 30.377 35.149 30.3509 35.111 30.3257C35.0899 30.3118 35.0681 30.2989 35.0458 30.2872L30.993 27.6114C30.8201 27.498 30.6093 27.4577 30.4068 27.4995C30.2042 27.5412 30.0265 27.6616 29.9125 27.8342C29.7986 28.0067 29.7577 28.2175 29.7989 28.4201C29.84 28.6228 29.9599 28.8009 30.1321 28.9153L34.3107 31.6743C34.496 31.8189 34.6206 32.0275 34.6599 32.2593C34.6992 32.491 34.6504 32.729 34.5231 32.9266C34.3959 33.1242 34.1993 33.2671 33.9721 33.3272C33.7449 33.3872 33.5034 33.3602 33.2951 33.2513C33.2535 33.2196 33.2089 33.1921 33.1619 33.1693L28.8411 30.3164C28.6682 30.2022 28.457 30.1614 28.254 30.2029C28.051 30.2444 27.8728 30.3649 27.7586 30.5378C27.6444 30.7107 27.6036 30.9219 27.6451 31.1249C27.6867 31.3279 27.8071 31.5061 27.9801 31.6203L32.3503 34.5058C32.3518 34.5068 32.3535 34.5076 32.355 34.5087C32.5115 34.6776 32.6007 34.898 32.6057 35.1283C32.6108 35.3585 32.5313 35.5826 32.3823 35.7583C32.2333 35.9339 32.0252 36.0489 31.7972 36.0814C31.5692 36.114 31.3372 36.0619 31.145 35.935L29.8474 35.0781L29.8466 35.0774L26.7763 33.0502C26.6907 32.9928 26.5947 32.953 26.4936 32.9329C26.3925 32.9129 26.2885 32.913 26.1875 32.9333C26.0865 32.9536 25.9905 32.9937 25.905 33.0513C25.8196 33.1088 25.7464 33.1827 25.6896 33.2687C25.6328 33.3547 25.5936 33.451 25.5742 33.5522C25.5548 33.6534 25.5556 33.7574 25.5766 33.8583C25.5976 33.9592 25.6383 34.0549 25.6964 34.14C25.7546 34.2251 25.829 34.2978 25.9153 34.354L28.9865 36.3818C29.1929 36.5205 29.3361 36.735 29.3849 36.9788C29.4338 37.2226 29.3843 37.4758 29.2473 37.6832C29.1102 37.8907 28.8968 38.0356 28.6534 38.0863C28.41 38.137 28.1564 38.0895 27.9479 37.9541L25.3069 36.2102C25.2623 35.6494 25.0295 35.1202 24.6465 34.7081C24.2635 34.2961 23.7525 34.0255 23.1965 33.9401C23.2664 33.3702 23.1379 32.7936 22.8327 32.3072C22.5274 31.8208 22.064 31.4544 21.5204 31.2695C21.7167 30.8362 21.7855 30.3558 21.7187 29.8847C21.6518 29.4137 21.4521 28.9714 21.1429 28.6098C20.8337 28.2482 20.4279 27.9822 19.973 27.8429C19.518 27.7037 19.0328 27.697 18.5742 27.8236C18.464 27.3961 18.2427 27.0054 17.9327 26.6911C17.6227 26.3767 17.2351 26.15 16.8092 26.0338C16.3833 25.9177 15.9342 25.9162 15.5076 26.0296C15.0809 26.1431 14.6918 26.3673 14.3799 26.6797L12.1711 28.8885C11.3317 28.3759 10.4493 27.5923 9.53728 26.5493L16.8412 17.2231C17.8918 17.7034 18.9821 18.0915 20.0999 18.383C17.992 21.1577 17.5677 21.896 17.4395 22.2432C17.3678 22.4378 17.3762 22.653 17.4631 22.8413C18.1205 24.2654 19.7467 24.6878 22.2975 24.0962C22.3935 24.074 22.4844 24.0338 22.5654 23.9777C22.9778 23.6925 23.3816 23.456 23.7379 23.2474C24.3182 22.9076 24.8192 22.6141 25.1865 22.2207C25.217 22.1842 25.2561 22.1558 25.3002 22.1381C25.3443 22.1204 25.3922 22.1139 25.4394 22.1191C25.7208 22.1361 25.9905 22.1499 26.2407 22.16C26.7112 22.1713 27.1668 22.3271 27.5457 22.6062L36.7591 29.1601C37.2021 29.4749 37.3294 30.0551 37.0485 30.4804V30.4805ZM37.6149 27.8509L28.4516 21.3332C27.8254 20.8794 27.0775 20.6238 26.3046 20.5991C26.0643 20.5893 25.8051 20.5761 25.5341 20.56C25.2571 20.5413 24.9794 20.585 24.7216 20.6879C24.4638 20.7908 24.2324 20.9503 24.0445 21.1547C23.8331 21.3812 23.4232 21.6212 22.9486 21.8992C22.6037 22.1013 22.217 22.3276 21.8041 22.6059C20.7998 22.8257 19.6226 22.9402 19.0856 22.4608C19.3493 22.0372 19.983 21.1146 21.5008 19.1226C23.8879 18.2259 26.0359 17.5113 27.8902 16.9979C28.7684 16.91 29.7706 17.0306 30.8708 17.356C30.9091 17.3674 30.9483 17.3758 30.988 17.3811C31.8001 17.4911 32.6175 17.5567 33.4368 17.5777L39.9273 25.8655C39.061 26.8765 38.3475 27.4902 37.6146 27.8508L37.6149 27.8509Z" fill="#8E8E8E"/>
</svg>
