<svg width="20" height="20" viewBox="0 0 20 20" fill="none" xmlns="http://www.w3.org/2000/svg">
<g clip-path="url(#clip0_9_452)">
<path d="M14.7483 5.24147L0.895245 8.85866C0.675639 8.91745 0.520354 9.11752 0.522098 9.34646C0.522393 9.45781 0.560055 9.56584 0.62905 9.65323C0.698045 9.74063 0.794379 9.80233 0.902617 9.82847L7.82411 11.5184L8.13976 18.6363C8.14931 18.8653 8.31442 19.0583 8.53804 19.1037C8.6898 19.1356 8.8431 19.0937 8.95667 19.0004C9.01153 18.9554 9.05686 18.8987 9.08894 18.8322L15.3239 5.94364C15.4094 5.76729 15.3843 5.5588 15.2605 5.40814C15.1367 5.25748 14.9371 5.19246 14.7483 5.24147Z" fill="#2EC6A3"/>
</g>
<defs>
<clipPath id="clip0_9_452">
<rect width="14" height="14" fill="white" transform="translate(0 8.88794) rotate(-39.409)"/>
</clipPath>
</defs>
</svg>
