<svg width="50" height="50" viewBox="0 0 50 50" fill="none" xmlns="http://www.w3.org/2000/svg">
<path d="M11.0828 33.1298C11.0461 33.1298 11.0086 33.1275 10.9703 33.122C9.19046 32.8662 7.46868 32.3026 5.88204 31.4564C5.70376 31.3563 5.57179 31.1903 5.51439 30.9941C5.45699 30.7978 5.47873 30.5869 5.57497 30.4065C5.6712 30.2261 5.83426 30.0905 6.02922 30.0289C6.22418 29.9673 6.43553 29.9844 6.61798 30.0767C8.0442 30.8384 9.59244 31.3452 11.193 31.5744C11.3877 31.6035 11.5644 31.7049 11.6876 31.8586C11.8108 32.0122 11.8715 32.2066 11.8576 32.4031C11.8437 32.5995 11.7561 32.7835 11.6125 32.9182C11.4689 33.0529 11.2797 33.1285 11.0828 33.1298ZM38.9172 33.1298C38.7196 33.1298 38.5293 33.0549 38.3847 32.9202C38.2401 32.7855 38.1519 32.6009 38.138 32.4038C38.124 32.2067 38.1853 32.0116 38.3094 31.8578C38.4336 31.704 38.6114 31.603 38.807 31.5752C40.4076 31.3461 41.9559 30.8393 43.382 30.0775C43.5638 29.9919 43.7715 29.9794 43.9621 30.0426C44.1528 30.1058 44.3119 30.24 44.4064 30.4172C44.501 30.5945 44.5238 30.8013 44.4701 30.9948C44.4164 31.1884 44.2903 31.354 44.118 31.4572C42.5313 32.3033 40.8096 32.867 39.0297 33.1228C38.9924 33.1274 38.9548 33.1298 38.9172 33.1298ZM30.7453 26.1166C30.6045 26.117 30.4661 26.0792 30.345 26.0073C30.2238 25.9354 30.1245 25.832 30.0574 25.7081C29.9903 25.5842 29.9581 25.4445 29.9641 25.3037C29.9701 25.163 30.0141 25.0265 30.0914 24.9087C30.6328 24.075 31.3744 23.39 32.2484 22.9164C33.1225 22.4427 34.1012 22.1954 35.0953 22.197C35.3025 22.197 35.5012 22.2793 35.6478 22.4259C35.7943 22.5724 35.8766 22.7711 35.8766 22.9783C35.8766 23.1855 35.7943 23.3842 35.6478 23.5307C35.5012 23.6772 35.3025 23.7595 35.0953 23.7595C34.3613 23.7581 33.6385 23.9406 32.9932 24.2904C32.3478 24.6402 31.8003 25.1461 31.4008 25.7619C31.3299 25.8711 31.2327 25.9607 31.1182 26.0227C31.0037 26.0847 30.8755 26.1169 30.7453 26.1166Z" fill="black"/>
<path d="M36.8273 23.7593C34.0578 23.7593 31.7188 21.4203 31.7188 18.6515C31.7188 15.8828 34.0578 13.5437 36.8273 13.5437C39.5961 13.5437 41.9352 15.8828 41.9352 18.6515C41.9352 21.4203 39.5961 23.7593 36.8273 23.7593ZM36.8273 15.1062C34.9055 15.1062 33.2812 16.7296 33.2812 18.6515C33.2812 20.5734 34.9055 22.1968 36.8273 22.1968C38.7492 22.1968 40.3727 20.5734 40.3727 18.6515C40.3727 16.7296 38.7492 15.1062 36.8273 15.1062Z" fill="black"/>
<path d="M43.75 28.9524C43.5428 28.9524 43.3441 28.8701 43.1976 28.7236C43.051 28.5771 42.9687 28.3784 42.9687 28.1712C42.9673 27.0018 42.5021 25.8807 41.6752 25.0538C40.8483 24.2269 39.7272 23.7617 38.5578 23.7603C38.3506 23.7603 38.1519 23.6779 38.0054 23.5314C37.8589 23.3849 37.7766 23.1862 37.7766 22.979C37.7766 22.7718 37.8589 22.5731 38.0054 22.4266C38.1519 22.2801 38.3506 22.1978 38.5578 22.1978C41.8516 22.1978 44.5312 24.8782 44.5312 28.1712C44.5312 28.3784 44.4489 28.5771 44.3024 28.7236C44.1559 28.8701 43.9572 28.9524 43.75 28.9524Z" fill="black"/>
<path d="M38.5578 23.7595H35.0961C34.8889 23.7595 34.6902 23.6772 34.5437 23.5307C34.3972 23.3842 34.3148 23.1855 34.3148 22.9783C34.3148 22.7711 34.3972 22.5724 34.5437 22.4258C34.6902 22.2793 34.8889 22.197 35.0961 22.197H38.5578C38.765 22.197 38.9637 22.2793 39.1102 22.4258C39.2568 22.5724 39.3391 22.7711 39.3391 22.9783C39.3391 23.1855 39.2568 23.3842 39.1102 23.5307C38.9637 23.6772 38.765 23.7595 38.5578 23.7595ZM43.75 31.5486C43.5428 31.5486 43.3441 31.4663 43.1976 31.3198C43.0511 31.1732 42.9688 30.9745 42.9688 30.7673V28.1712C42.9688 27.964 43.0511 27.7653 43.1976 27.6188C43.3441 27.4723 43.5428 27.39 43.75 27.39C43.9572 27.39 44.1559 27.4723 44.3024 27.6188C44.4489 27.7653 44.5313 27.964 44.5313 28.1712V30.7673C44.5313 30.9745 44.4489 31.1732 44.3024 31.3198C44.1559 31.4663 43.9572 31.5486 43.75 31.5486ZM15.7695 32.1251C15.5623 32.1251 15.3636 32.0428 15.2171 31.8963C15.0706 31.7498 14.9883 31.5511 14.9883 31.3439C14.9883 27.0955 18.4445 23.64 22.6922 23.64C22.8994 23.64 23.0981 23.7223 23.2446 23.8688C23.3911 24.0153 23.4734 24.214 23.4734 24.4212C23.4734 24.6284 23.3911 24.8272 23.2446 24.9737C23.0981 25.1202 22.8994 25.2025 22.6922 25.2025C19.3055 25.2025 16.5508 27.9572 16.5508 31.3439C16.5508 31.5511 16.4685 31.7498 16.322 31.8963C16.1754 32.0428 15.9767 32.1251 15.7695 32.1251Z" fill="black"/>
<path d="M27.3078 25.2025H22.6922C22.485 25.2025 22.2863 25.1202 22.1398 24.9737C21.9933 24.8272 21.9109 24.6285 21.9109 24.4212C21.9109 24.214 21.9933 24.0153 22.1398 23.8688C22.2863 23.7223 22.485 23.64 22.6922 23.64H27.3078C27.515 23.64 27.7137 23.7223 27.8602 23.8688C28.0068 24.0153 28.0891 24.214 28.0891 24.4212C28.0891 24.6285 28.0068 24.8272 27.8602 24.9737C27.7137 25.1202 27.515 25.2025 27.3078 25.2025ZM19.2547 26.1166C19.1245 26.1167 18.9964 26.0844 18.8819 26.0224C18.7675 25.9605 18.6703 25.8709 18.5992 25.7619C18.1995 25.1462 17.652 24.6404 17.0067 24.2907C16.3614 23.9409 15.6387 23.7583 14.9047 23.7595C14.6975 23.7595 14.4988 23.6772 14.3523 23.5307C14.2058 23.3842 14.1234 23.1855 14.1234 22.9783C14.1234 22.7711 14.2058 22.5724 14.3523 22.4259C14.4988 22.2793 14.6975 22.197 14.9047 22.197C15.8989 22.1953 16.8776 22.4425 17.7517 22.9162C18.6258 23.3898 19.3673 24.0749 19.9086 24.9087C19.9854 25.0266 20.029 25.163 20.0347 25.3035C20.0404 25.4441 20.0081 25.5836 19.9411 25.7073C19.8741 25.831 19.775 25.9343 19.6542 26.0063C19.5334 26.0784 19.3954 26.1165 19.2547 26.1166ZM15.7695 35.5869C15.5623 35.5869 15.3636 35.5046 15.2171 35.3581C15.0706 35.2115 14.9883 35.0128 14.9883 34.8056V31.3439C14.9883 31.1367 15.0706 30.938 15.2171 30.7915C15.3636 30.645 15.5623 30.5627 15.7695 30.5627C15.9767 30.5627 16.1755 30.645 16.322 30.7915C16.4685 30.938 16.5508 31.1367 16.5508 31.3439V34.8056C16.5508 35.0128 16.4685 35.2115 16.322 35.3581C16.1755 35.5046 15.9767 35.5869 15.7695 35.5869Z" fill="black"/>
<path d="M25 25.2024C21.4492 25.2024 18.4492 22.2024 18.4492 18.6516C18.4492 15.1008 21.4492 12.1008 25 12.1008C28.5508 12.1008 31.5508 15.1008 31.5508 18.6516C31.5508 22.2024 28.5508 25.2024 25 25.2024ZM25 13.6633C22.2961 13.6633 20.0117 15.9477 20.0117 18.6516C20.0117 21.3555 22.2961 23.6399 25 23.6399C27.7039 23.6399 29.9883 21.3555 29.9883 18.6516C29.9883 15.9477 27.7039 13.6633 25 13.6633Z" fill="black"/>
<path d="M34.2305 32.125C34.0233 32.125 33.8245 32.0427 33.678 31.8962C33.5315 31.7497 33.4492 31.551 33.4492 31.3438C33.4492 27.9571 30.6945 25.2024 27.3078 25.2024C27.1006 25.2024 26.9019 25.1201 26.7554 24.9736C26.6089 24.8271 26.5266 24.6283 26.5266 24.4211C26.5266 24.2139 26.6089 24.0152 26.7554 23.8687C26.9019 23.7222 27.1006 23.6399 27.3078 23.6399C31.5562 23.6399 35.0117 27.0961 35.0117 31.3438C35.0117 31.551 34.9294 31.7497 34.7829 31.8962C34.6364 32.0427 34.4377 32.125 34.2305 32.125Z" fill="black"/>
<path d="M34.2305 35.5867C34.0233 35.5867 33.8246 35.5044 33.678 35.3579C33.5315 35.2114 33.4492 35.0127 33.4492 34.8055V31.3438C33.4492 31.1365 33.5315 30.9378 33.678 30.7913C33.8246 30.6448 34.0233 30.5625 34.2305 30.5625C34.4377 30.5625 34.6364 30.6448 34.7829 30.7913C34.9294 30.9378 35.0117 31.1365 35.0117 31.3438V34.8055C35.0117 35.0127 34.9294 35.2114 34.7829 35.3579C34.6364 35.5044 34.4377 35.5867 34.2305 35.5867Z" fill="black"/>
<path d="M25 37.8992C21.7031 37.8992 18.407 37.0976 15.4016 35.4953C15.2292 35.392 15.1032 35.2265 15.0495 35.0329C14.9958 34.8393 15.0186 34.6325 15.1131 34.4553C15.2077 34.278 15.3667 34.1439 15.5574 34.0807C15.7481 34.0175 15.9558 34.0299 16.1375 34.1156C18.8643 35.5731 21.9085 36.3357 25.0004 36.3357C28.0923 36.3357 31.1365 35.5731 33.8633 34.1156C34.045 34.0299 34.2527 34.0175 34.4434 34.0807C34.6341 34.1439 34.7931 34.278 34.8877 34.4553C34.9822 34.6325 35.005 34.8393 34.9513 35.0329C34.8976 35.2265 34.7716 35.392 34.5992 35.4953C31.6453 37.0722 28.3485 37.8978 25 37.8992ZM13.1727 23.7593C10.4039 23.7593 8.06485 21.4203 8.06485 18.6515C8.06485 15.8828 10.4039 13.5437 13.1727 13.5437C15.9414 13.5437 18.2805 15.8828 18.2805 18.6515C18.2805 21.4203 15.9414 23.7593 13.1727 23.7593ZM13.1727 15.1062C11.2508 15.1062 9.62735 16.7296 9.62735 18.6515C9.62735 20.5734 11.2508 22.1968 13.1727 22.1968C15.0945 22.1968 16.718 20.5734 16.718 18.6515C16.718 16.7296 15.0945 15.1062 13.1727 15.1062Z" fill="black"/>
<path d="M6.25 28.9524C6.0428 28.9524 5.84409 28.8701 5.69757 28.7236C5.55106 28.5771 5.46875 28.3784 5.46875 28.1712C5.46875 24.8774 8.14922 22.1978 11.4422 22.1978C11.6494 22.1978 11.8481 22.2801 11.9946 22.4266C12.1411 22.5731 12.2234 22.7718 12.2234 22.979C12.2234 23.1862 12.1411 23.3849 11.9946 23.5314C11.8481 23.6779 11.6494 23.7603 11.4422 23.7603C10.2727 23.7613 9.15131 24.2263 8.32433 25.0533C7.49734 25.8803 7.03228 27.0017 7.03125 28.1712C7.03125 28.3784 6.94894 28.5771 6.80243 28.7236C6.65591 28.8701 6.4572 28.9524 6.25 28.9524Z" fill="black"/>
<path d="M14.9039 23.7595H11.4422C11.235 23.7595 11.0363 23.6772 10.8898 23.5307C10.7432 23.3842 10.6609 23.1855 10.6609 22.9783C10.6609 22.7711 10.7432 22.5724 10.8898 22.4258C11.0363 22.2793 11.235 22.197 11.4422 22.197H14.9039C15.1111 22.197 15.3098 22.2793 15.4563 22.4258C15.6028 22.5724 15.6852 22.7711 15.6852 22.9783C15.6852 23.1855 15.6028 23.3842 15.4563 23.5307C15.3098 23.6772 15.1111 23.7595 14.9039 23.7595ZM6.25 31.5486C6.0428 31.5486 5.84409 31.4663 5.69757 31.3198C5.55106 31.1732 5.46875 30.9745 5.46875 30.7673V28.1712C5.46875 27.964 5.55106 27.7653 5.69757 27.6188C5.84409 27.4723 6.0428 27.39 6.25 27.39C6.4572 27.39 6.65591 27.4723 6.80243 27.6188C6.94894 27.7653 7.03125 27.964 7.03125 28.1712V30.7673C7.03125 30.9745 6.94894 31.1732 6.80243 31.3198C6.65591 31.4663 6.4572 31.5486 6.25 31.5486Z" fill="black"/>
</svg>
