<svg width="50" height="50" viewBox="0 0 50 50" fill="none" xmlns="http://www.w3.org/2000/svg">
<path d="M33.6146 27.027L29.3586 25.1354C29.2114 25.0698 29.0863 24.963 28.9984 24.8279C28.9106 24.6928 28.8638 24.5351 28.8638 24.3739V23.2052C30.2935 22.066 31.2124 20.3118 31.2124 18.346V16.7008C31.6834 16.4405 31.9952 15.9376 31.9952 15.3743V15.2146C31.9952 11.7893 29.2084 9.00244 25.783 9.00244H24.2174C20.792 9.00244 18.0052 11.7893 18.0052 15.2146V16.6634C18.0052 17.1585 18.2183 17.607 18.5896 17.894C18.6526 17.9427 18.7189 17.9854 18.788 18.0225V18.3459C18.788 20.3117 19.7068 22.0659 21.1364 23.205V24.3738C21.1363 24.535 21.0896 24.6927 21.0017 24.8278C20.9139 24.9629 20.7888 25.0697 20.6416 25.1353L16.3855 27.0269C14.9917 27.6463 14.091 29.0322 14.091 30.5575V40.2649C14.091 40.4592 14.1682 40.6455 14.3055 40.7828C14.4429 40.9202 14.6292 40.9974 14.8234 40.9974C15.0177 40.9974 15.204 40.9202 15.3413 40.7828C15.4787 40.6455 15.5559 40.4592 15.5559 40.2649V30.5576C15.5559 30.4728 15.5619 30.3889 15.5707 30.3057L17.5318 32.2668C17.6824 32.4165 17.8017 32.5946 17.883 32.7908C17.9642 32.9869 18.0057 33.1973 18.0052 33.4096V40.265C18.0052 40.4593 18.0823 40.6456 18.2197 40.7829C18.3571 40.9203 18.5433 40.9975 18.7376 40.9975C18.9318 40.9975 19.1181 40.9203 19.2555 40.7829C19.3929 40.6456 19.47 40.4593 19.47 40.265V33.4096C19.47 32.5866 19.1496 31.813 18.5677 31.2311L16.2297 28.893C16.4436 28.6703 16.6986 28.4912 16.9806 28.3654L21.1648 26.5058L24.2679 29.6088V40.2649C24.2679 40.4592 24.345 40.6455 24.4824 40.7828C24.6197 40.9202 24.806 40.9974 25.0003 40.9974C25.1945 40.9974 25.3808 40.9202 25.5182 40.7828C25.6556 40.6455 25.7327 40.4592 25.7327 40.2649V29.6089L28.8357 26.5059L33.0199 28.3654C33.3019 28.4912 33.5569 28.6704 33.7708 28.8931L31.4328 31.2311C30.8509 31.813 30.5305 32.5866 30.5305 33.4096V40.265C30.5305 40.4593 30.6076 40.6456 30.745 40.7829C30.8823 40.9203 31.0686 40.9975 31.2629 40.9975C31.4571 40.9975 31.6434 40.9203 31.7808 40.7829C31.9181 40.6456 31.9953 40.4593 31.9953 40.265V33.4096C31.9947 33.1973 32.0363 32.9869 32.1175 32.7908C32.1988 32.5946 32.3181 32.4165 32.4687 32.2668L34.4297 30.3058C34.4385 30.389 34.4445 30.4727 34.4445 30.5575V40.2649C34.4445 40.4592 34.5217 40.6455 34.659 40.7828C34.7964 40.9202 34.9827 40.9974 35.177 40.9974C35.3712 40.9974 35.5575 40.9202 35.6949 40.7828C35.8322 40.6455 35.9094 40.4592 35.9094 40.2649V30.5576C35.9091 29.0323 35.0085 27.6464 33.6146 27.027ZM25 28.2697L22.2772 25.5469C22.4888 25.1922 22.6008 24.7869 22.6012 24.3739V24.0759C23.3397 24.3862 24.1502 24.5582 25.0001 24.5582C25.85 24.5582 26.6604 24.3863 27.3988 24.076V24.3739C27.3988 24.7956 27.5157 25.1985 27.7229 25.547L25 28.2697ZM25.0001 23.0933C22.3824 23.0934 20.2527 20.9637 20.2527 18.346V18.0166C20.7098 17.8354 21.1559 17.5472 21.5829 17.1531C21.7257 17.0214 21.8102 16.8383 21.818 16.6442C21.8258 16.4501 21.7561 16.2609 21.6244 16.1181C21.4926 15.9754 21.3095 15.8908 21.1154 15.883C20.9213 15.8753 20.7321 15.9449 20.5894 16.0767C20.223 16.4148 19.857 16.6333 19.5018 16.7261C19.4954 16.7278 19.4889 16.729 19.4823 16.7297C19.4771 16.7194 19.4699 16.6979 19.4699 16.6635V15.2147C19.4699 12.5971 21.5996 10.4674 24.2173 10.4674H25.7829C28.4007 10.4674 30.5303 12.5971 30.5303 15.2147V15.3744C30.5303 15.3981 30.516 15.4188 30.4973 15.4225C26.1114 16.2887 23.9116 14.6562 23.1694 13.914C23.0321 13.7766 22.8458 13.6995 22.6516 13.6995C22.4573 13.6995 22.271 13.7766 22.1337 13.914C21.9964 14.0513 21.9192 14.2376 21.9192 14.4318C21.9192 14.6261 21.9964 14.8124 22.1337 14.9497C24.4081 17.2241 27.727 17.2651 29.7475 17.0224V18.3459C29.7475 20.9636 27.6178 23.0933 25.0001 23.0933ZM13.2072 23.0432V21.4772C13.2072 19.5665 12.2143 17.8845 10.7181 16.9165C10.811 16.619 10.8584 16.3091 10.8587 15.9975C10.8587 14.2986 9.47666 12.9166 7.77783 12.9166C6.079 12.9166 4.69697 14.2987 4.69697 15.9975C4.69697 16.3136 4.74482 16.621 4.8374 16.9167C3.34131 17.8846 2.34844 19.5666 2.34844 21.4772V23.0429C2.34844 24.8932 3.27939 26.5293 4.69688 27.51V29.1206C4.69741 29.2755 4.65455 29.4274 4.57315 29.5591C4.49175 29.6908 4.37506 29.7971 4.23633 29.8659L1.70303 31.1325C0.652539 31.6579 0 32.7138 0 33.8883V40.2651C0 40.4594 0.0771656 40.6457 0.214521 40.783C0.351877 40.9204 0.538172 40.9976 0.732422 40.9976C0.926672 40.9976 1.11297 40.9204 1.25032 40.783C1.38768 40.6457 1.46484 40.4594 1.46484 40.2651V34.2051L2.65801 35.3982C2.80854 35.548 2.92788 35.7261 3.00913 35.9222C3.09038 36.1184 3.13192 36.3287 3.13135 36.541V40.2651C3.13135 40.4594 3.20851 40.6457 3.34587 40.783C3.48322 40.9204 3.66952 40.9976 3.86377 40.9976C4.05802 40.9976 4.24431 40.9204 4.38167 40.783C4.51903 40.6457 4.59619 40.4594 4.59619 40.2651V36.541C4.59619 35.7181 4.27568 34.9444 3.69385 34.3625L2.0332 32.7019C2.0252 32.6938 2.0166 32.6869 2.0084 32.6794C2.11427 32.5857 2.23186 32.5062 2.3582 32.4429L4.8915 31.1763C5.01926 31.112 5.14083 31.0361 5.25469 30.9495L7.04541 32.7403V40.2652C7.04541 40.4595 7.12258 40.6458 7.25993 40.7831C7.39729 40.9205 7.58358 40.9977 7.77783 40.9977C7.97208 40.9977 8.15838 40.9205 8.29573 40.7831C8.43309 40.6458 8.51025 40.4595 8.51025 40.2652V32.7402L10.3011 30.9494C10.4149 31.036 10.5365 31.1119 10.6643 31.1762L11.3628 31.5255C11.5358 31.6066 11.7336 31.6168 11.9141 31.5541C12.0946 31.4914 12.2434 31.3607 12.3289 31.1898C12.4143 31.0189 12.4297 30.8214 12.3716 30.6394C12.3135 30.4574 12.1866 30.3052 12.018 30.2154L11.3194 29.8661C11.1807 29.7973 11.064 29.6911 10.9826 29.5594C10.9011 29.4276 10.8583 29.2757 10.8588 29.1209V27.5103C12.2763 26.5296 13.2072 24.8934 13.2072 23.0432ZM7.77783 14.3814C8.66895 14.3814 9.39385 15.1064 9.39385 15.9975C9.39385 16.0956 9.38506 16.1918 9.36826 16.286C8.85294 16.1279 8.31688 16.0476 7.77783 16.0479C7.22539 16.0479 6.69219 16.1313 6.18965 16.2854C6.17184 16.1904 6.16253 16.0941 6.16182 15.9975C6.16182 15.1063 6.88672 14.3814 7.77783 14.3814ZM7.77783 17.5128C9.96387 17.5128 11.7424 19.2913 11.7424 21.4773V21.7428C8.69307 22.6764 6.87578 20.3567 6.79814 20.2551C6.73516 20.1712 6.65489 20.1018 6.56276 20.0516C6.47063 20.0014 6.36879 19.9715 6.26413 19.9641C6.15947 19.9567 6.05444 19.9718 5.95613 20.0085C5.85783 20.0451 5.76855 20.1025 5.69434 20.1767C4.99521 20.8758 4.31045 21.213 3.81592 21.3758C3.87012 19.2365 5.62588 17.5128 7.77783 17.5128ZM7.77783 31.401L6.08535 29.7085C6.13477 29.5196 6.16182 29.3228 6.16182 29.1207V28.2267C6.67246 28.3862 7.21533 28.4723 7.77783 28.4723C8.34033 28.4723 8.8832 28.3862 9.39385 28.2267V29.1207C9.39385 29.3228 9.4209 29.5197 9.47031 29.7085L7.77783 31.401ZM7.77783 27.0074C5.5918 27.0074 3.81328 25.2289 3.81328 23.0429V22.8911C4.39736 22.7569 5.26338 22.4451 6.1668 21.7186C6.48643 22.0201 6.94326 22.39 7.525 22.7073C8.21309 23.0826 9.16338 23.4298 10.3241 23.4298C10.7652 23.4298 11.2372 23.3785 11.7361 23.2607C11.6226 25.3459 9.89072 27.0074 7.77783 27.0074ZM48.297 29.567L44.198 27.5175C44.0593 27.4487 43.9427 27.3424 43.8613 27.2107C43.7799 27.079 43.737 26.9271 43.7375 26.7723V25.7343C44.697 24.8824 45.3031 23.641 45.3031 22.2602V21.4265C45.32 21.4265 45.3366 21.427 45.3535 21.427C45.5478 21.427 45.7341 21.3498 45.8714 21.2124C46.0088 21.0751 46.0859 20.8888 46.0859 20.6945V19.1289C46.0859 16.5668 44.0015 14.4823 41.4394 14.4823H39.8737C37.3116 14.4823 35.2271 16.5668 35.2271 19.1289V20.6945C35.2271 20.8888 35.3043 21.0751 35.4417 21.2124C35.579 21.3498 35.7653 21.427 35.9596 21.427C35.9656 21.427 35.9832 21.4268 36.01 21.4257V22.2602C36.01 23.6411 36.6162 24.8825 37.5757 25.7344V26.7724C37.5762 26.9272 37.5334 27.0791 37.4519 27.2108C37.3705 27.3426 37.2538 27.4488 37.115 27.5176C37.029 27.5606 36.9523 27.6201 36.8893 27.6928C36.8262 27.7654 36.7781 27.8498 36.7477 27.941C36.7173 28.0323 36.7052 28.1286 36.712 28.2246C36.7188 28.3205 36.7445 28.4142 36.7875 28.5002C36.8744 28.6739 37.0267 28.8061 37.211 28.8675C37.3952 28.929 37.5964 28.9147 37.7701 28.8278C37.8979 28.7635 38.0194 28.6876 38.1333 28.6011L39.9241 30.3919V40.2652C39.9241 40.4595 40.0013 40.6458 40.1386 40.7831C40.276 40.9205 40.4623 40.9977 40.6565 40.9977C40.8508 40.9977 41.0371 40.9205 41.1744 40.7831C41.3118 40.6458 41.389 40.4595 41.389 40.2652V30.3917L43.1797 28.6009C43.2935 28.6875 43.4151 28.7634 43.5429 28.8276L47.5092 30.8108L46.3062 32.0139C45.7243 32.5958 45.4038 33.3694 45.4038 34.1924V40.265C45.4038 40.4593 45.481 40.6456 45.6183 40.7829C45.7557 40.9203 45.942 40.9975 46.1362 40.9975C46.3305 40.9975 46.5168 40.9203 46.6541 40.7829C46.7915 40.6456 46.8687 40.4593 46.8687 40.265V34.1924C46.8681 33.9801 46.9096 33.7697 46.9909 33.5736C47.0721 33.3774 47.1915 33.1993 47.342 33.0496L48.4815 31.9101C48.5161 32.0426 48.5351 32.1808 48.5351 32.3226V40.265C48.5351 40.4593 48.6122 40.6456 48.7496 40.7829C48.8869 40.9203 49.0732 40.9975 49.2675 40.9975C49.4617 40.9975 49.648 40.9203 49.7854 40.7829C49.9227 40.6456 49.9999 40.4593 49.9999 40.265V32.3226C50 31.1481 49.3475 30.0923 48.297 29.567ZM36.6919 19.8114V19.1288H36.692C36.692 17.3744 38.1193 15.9471 39.8737 15.9471H41.4394C43.1937 15.9471 44.6211 17.3744 44.6211 19.1288V19.9424C41.4372 19.7706 39.5158 18.5316 39.4972 18.5194C39.3563 18.4254 39.1872 18.3831 39.0187 18.3998C38.8502 18.4165 38.6926 18.4911 38.5729 18.6109C37.8722 19.3117 37.1855 19.649 36.6919 19.8114ZM40.6565 29.0525L38.9641 27.3601C39.0135 27.1712 39.0405 26.9743 39.0405 26.7723V26.6163C39.5576 26.8087 40.1049 26.907 40.6565 26.9066C41.2082 26.907 41.7555 26.8087 42.2726 26.6163V26.7723C42.2726 26.9743 42.2995 27.1712 42.349 27.3601L40.6565 29.0525ZM40.6565 25.4419C38.9021 25.4419 37.4748 24.0146 37.4748 22.2602V21.0794C37.9878 20.8744 38.5854 20.5485 39.1936 20.0304C39.9628 20.4306 41.572 21.1223 43.8383 21.3508V22.2602C43.8383 24.0146 42.4109 25.4419 40.6565 25.4419Z" fill="#8E8E8E"/>
</svg>
